<mxfile host="Electron" modified="2023-12-04T16:15:09.787Z" agent="Mozilla/5.0 (Windows NT 10.0; Win64; x64) AppleWebKit/537.36 (KHTML, like Gecko) draw.io/22.1.2 Chrome/114.0.5735.289 Electron/25.9.4 Safari/537.36" etag="1NeRmFzcITfhr2dbGqPf" version="22.1.2" type="device">
  <diagram name="Page-1" id="U29Owg_aVIVsoFzqJ46s">
    <mxGraphModel dx="5170" dy="2555" grid="1" gridSize="10" guides="1" tooltips="1" connect="1" arrows="1" fold="1" page="1" pageScale="1" pageWidth="827" pageHeight="1169" math="0" shadow="0">
      <root>
        <mxCell id="0" />
        <mxCell id="1" parent="0" />
        <mxCell id="CzH391TgKFOJ2yvW04ex-3" style="edgeStyle=orthogonalEdgeStyle;rounded=0;orthogonalLoop=1;jettySize=auto;html=1;exitX=0.5;exitY=1;exitDx=0;exitDy=0;" edge="1" parent="1" source="CzH391TgKFOJ2yvW04ex-1" target="CzH391TgKFOJ2yvW04ex-2">
          <mxGeometry relative="1" as="geometry" />
        </mxCell>
        <mxCell id="CzH391TgKFOJ2yvW04ex-1" value="" style="ellipse;fillColor=strokeColor;html=1;" vertex="1" parent="1">
          <mxGeometry x="240" y="110" width="30" height="30" as="geometry" />
        </mxCell>
        <mxCell id="CzH391TgKFOJ2yvW04ex-5" style="edgeStyle=orthogonalEdgeStyle;rounded=0;orthogonalLoop=1;jettySize=auto;html=1;exitX=0.5;exitY=1;exitDx=0;exitDy=0;entryX=0.5;entryY=0;entryDx=0;entryDy=0;" edge="1" parent="1" source="CzH391TgKFOJ2yvW04ex-22" target="CzH391TgKFOJ2yvW04ex-4">
          <mxGeometry relative="1" as="geometry" />
        </mxCell>
        <mxCell id="CzH391TgKFOJ2yvW04ex-2" value="Afficher l&#39;intarface" style="rounded=1;whiteSpace=wrap;html=1;fillColor=none;spacingLeft=0;spacingTop=0;spacing=5;" vertex="1" parent="1">
          <mxGeometry x="195" y="170" width="120" height="60" as="geometry" />
        </mxCell>
        <mxCell id="CzH391TgKFOJ2yvW04ex-6" style="edgeStyle=orthogonalEdgeStyle;rounded=0;orthogonalLoop=1;jettySize=auto;html=1;exitX=0;exitY=0.5;exitDx=0;exitDy=0;entryX=0.5;entryY=0;entryDx=0;entryDy=0;" edge="1" parent="1" source="CzH391TgKFOJ2yvW04ex-4" target="CzH391TgKFOJ2yvW04ex-4">
          <mxGeometry relative="1" as="geometry">
            <mxPoint x="100" y="430" as="targetPoint" />
            <Array as="points">
              <mxPoint x="150" y="430" />
              <mxPoint x="150" y="350" />
              <mxPoint x="255" y="350" />
            </Array>
          </mxGeometry>
        </mxCell>
        <mxCell id="CzH391TgKFOJ2yvW04ex-7" value="Oui" style="edgeLabel;html=1;align=center;verticalAlign=middle;resizable=0;points=[];" vertex="1" connectable="0" parent="CzH391TgKFOJ2yvW04ex-6">
          <mxGeometry x="-0.7253" y="-1" relative="1" as="geometry">
            <mxPoint as="offset" />
          </mxGeometry>
        </mxCell>
        <mxCell id="CzH391TgKFOJ2yvW04ex-10" style="edgeStyle=orthogonalEdgeStyle;rounded=0;orthogonalLoop=1;jettySize=auto;html=1;exitX=0.5;exitY=1;exitDx=0;exitDy=0;" edge="1" parent="1" source="CzH391TgKFOJ2yvW04ex-4" target="CzH391TgKFOJ2yvW04ex-9">
          <mxGeometry relative="1" as="geometry" />
        </mxCell>
        <mxCell id="CzH391TgKFOJ2yvW04ex-11" value="Non" style="edgeLabel;html=1;align=center;verticalAlign=middle;resizable=0;points=[];" vertex="1" connectable="0" parent="CzH391TgKFOJ2yvW04ex-10">
          <mxGeometry x="0.2933" relative="1" as="geometry">
            <mxPoint y="-2" as="offset" />
          </mxGeometry>
        </mxCell>
        <mxCell id="CzH391TgKFOJ2yvW04ex-4" value="La fenêtre est ouverte" style="rhombus;whiteSpace=wrap;html=1;fillColor=none;aspect=fixed;" vertex="1" parent="1">
          <mxGeometry x="205" y="380" width="100" height="100" as="geometry" />
        </mxCell>
        <mxCell id="CzH391TgKFOJ2yvW04ex-9" value="" style="ellipse;html=1;shape=endState;fillColor=strokeColor;" vertex="1" parent="1">
          <mxGeometry x="240" y="510" width="30" height="30" as="geometry" />
        </mxCell>
        <mxCell id="CzH391TgKFOJ2yvW04ex-21" style="edgeStyle=orthogonalEdgeStyle;rounded=0;orthogonalLoop=1;jettySize=auto;html=1;exitX=0.5;exitY=1;exitDx=0;exitDy=0;entryX=0.5;entryY=0;entryDx=0;entryDy=0;" edge="1" parent="1" source="CzH391TgKFOJ2yvW04ex-12" target="CzH391TgKFOJ2yvW04ex-20">
          <mxGeometry relative="1" as="geometry" />
        </mxCell>
        <mxCell id="CzH391TgKFOJ2yvW04ex-12" value="" style="ellipse;fillColor=none;" vertex="1" parent="1">
          <mxGeometry x="680" y="110" width="30" height="30" as="geometry" />
        </mxCell>
        <mxCell id="CzH391TgKFOJ2yvW04ex-13" value="" style="shape=note2;size=25;childLayout=stackLayout;horizontalStack=0;resizeParent=1;resizeParentMax=0;resizeLast=0;collapsible=0;marginBottom=0;html=1;container=1;fillColor=#fff2cc;strokeColor=#d6b656;" vertex="1" parent="1">
          <mxGeometry x="360" y="100" width="160" height="80" as="geometry" />
        </mxCell>
        <mxCell id="CzH391TgKFOJ2yvW04ex-14" value="Note" style="text;html=1;strokeColor=none;fillColor=none;align=left;verticalAlign=middle;spacingLeft=4;spacingRight=4;overflow=hidden;rotatable=0;points=[[0,0.5],[1,0.5]];portConstraint=eastwest;whiteSpace=wrap;" vertex="1" parent="CzH391TgKFOJ2yvW04ex-13">
          <mxGeometry width="160" height="25" as="geometry" />
        </mxCell>
        <mxCell id="CzH391TgKFOJ2yvW04ex-15" value="Ouverture en mode administrateur" style="text;html=1;strokeColor=none;fillColor=none;align=left;verticalAlign=middle;spacingLeft=4;spacingRight=4;overflow=hidden;rotatable=0;points=[[0,0.5],[1,0.5]];portConstraint=eastwest;whiteSpace=wrap;" vertex="1" parent="CzH391TgKFOJ2yvW04ex-13">
          <mxGeometry y="25" width="160" height="55" as="geometry" />
        </mxCell>
        <mxCell id="CzH391TgKFOJ2yvW04ex-17" value="" style="shape=note2;size=25;childLayout=stackLayout;horizontalStack=0;resizeParent=1;resizeParentMax=0;resizeLast=0;collapsible=0;marginBottom=0;html=1;container=1;fillColor=#fff2cc;strokeColor=#d6b656;" vertex="1" parent="1">
          <mxGeometry x="800" y="100" width="160" height="80" as="geometry" />
        </mxCell>
        <mxCell id="CzH391TgKFOJ2yvW04ex-18" value="Évènement" style="text;html=1;strokeColor=none;fillColor=none;align=left;verticalAlign=middle;spacingLeft=4;spacingRight=4;overflow=hidden;rotatable=0;points=[[0,0.5],[1,0.5]];portConstraint=eastwest;whiteSpace=wrap;" vertex="1" parent="CzH391TgKFOJ2yvW04ex-17">
          <mxGeometry width="160" height="25" as="geometry" />
        </mxCell>
        <mxCell id="CzH391TgKFOJ2yvW04ex-19" value="Clique sur un onglet client" style="text;html=1;strokeColor=none;fillColor=none;align=left;verticalAlign=middle;spacingLeft=4;spacingRight=4;overflow=hidden;rotatable=0;points=[[0,0.5],[1,0.5]];portConstraint=eastwest;whiteSpace=wrap;" vertex="1" parent="CzH391TgKFOJ2yvW04ex-17">
          <mxGeometry y="25" width="160" height="55" as="geometry" />
        </mxCell>
        <mxCell id="CzH391TgKFOJ2yvW04ex-25" style="edgeStyle=orthogonalEdgeStyle;rounded=0;orthogonalLoop=1;jettySize=auto;html=1;exitX=0.5;exitY=1;exitDx=0;exitDy=0;entryX=0.5;entryY=0;entryDx=0;entryDy=0;" edge="1" parent="1" source="CzH391TgKFOJ2yvW04ex-28" target="CzH391TgKFOJ2yvW04ex-24">
          <mxGeometry relative="1" as="geometry" />
        </mxCell>
        <mxCell id="CzH391TgKFOJ2yvW04ex-68" style="edgeStyle=orthogonalEdgeStyle;rounded=0;orthogonalLoop=1;jettySize=auto;html=1;exitX=0.5;exitY=1;exitDx=0;exitDy=0;entryX=0.5;entryY=0;entryDx=0;entryDy=0;" edge="1" parent="1" source="CzH391TgKFOJ2yvW04ex-20" target="CzH391TgKFOJ2yvW04ex-67">
          <mxGeometry relative="1" as="geometry" />
        </mxCell>
        <mxCell id="CzH391TgKFOJ2yvW04ex-20" value="Afficher l&#39;onglet &lt;br&gt;client" style="rounded=1;whiteSpace=wrap;html=1;fillColor=none;spacingLeft=0;spacingTop=0;spacing=5;" vertex="1" parent="1">
          <mxGeometry x="635" y="170" width="120" height="60" as="geometry" />
        </mxCell>
        <mxCell id="CzH391TgKFOJ2yvW04ex-23" value="" style="edgeStyle=orthogonalEdgeStyle;rounded=0;orthogonalLoop=1;jettySize=auto;html=1;exitX=0.5;exitY=1;exitDx=0;exitDy=0;entryX=0.5;entryY=0;entryDx=0;entryDy=0;" edge="1" parent="1" source="CzH391TgKFOJ2yvW04ex-2" target="CzH391TgKFOJ2yvW04ex-22">
          <mxGeometry relative="1" as="geometry">
            <mxPoint x="255" y="230" as="sourcePoint" />
            <mxPoint x="255" y="380" as="targetPoint" />
          </mxGeometry>
        </mxCell>
        <mxCell id="CzH391TgKFOJ2yvW04ex-22" value="Afficher l&#39;onget par défaut : client" style="rounded=1;whiteSpace=wrap;html=1;fillColor=none;spacingLeft=0;spacingTop=0;spacing=5;" vertex="1" parent="1">
          <mxGeometry x="195" y="260" width="120" height="60" as="geometry" />
        </mxCell>
        <mxCell id="CzH391TgKFOJ2yvW04ex-24" value="" style="shape=sumEllipse;perimeter=ellipsePerimeter;html=1;backgroundOutline=1;fillColor=none;" vertex="1" parent="1">
          <mxGeometry x="680" y="450" width="30" height="30" as="geometry" />
        </mxCell>
        <mxCell id="CzH391TgKFOJ2yvW04ex-26" value="Charger tous les clients depuis la BDD" style="rounded=1;whiteSpace=wrap;html=1;fillColor=none;spacingLeft=0;spacingTop=0;spacing=5;" vertex="1" parent="1">
          <mxGeometry x="820" y="260" width="120" height="60" as="geometry" />
        </mxCell>
        <mxCell id="CzH391TgKFOJ2yvW04ex-29" value="" style="edgeStyle=orthogonalEdgeStyle;rounded=0;orthogonalLoop=1;jettySize=auto;html=1;exitX=0.5;exitY=1;exitDx=0;exitDy=0;entryX=0.5;entryY=0;entryDx=0;entryDy=0;" edge="1" parent="1" source="CzH391TgKFOJ2yvW04ex-26" target="CzH391TgKFOJ2yvW04ex-28">
          <mxGeometry relative="1" as="geometry">
            <mxPoint x="880" y="320" as="sourcePoint" />
            <mxPoint x="880" y="470" as="targetPoint" />
          </mxGeometry>
        </mxCell>
        <mxCell id="CzH391TgKFOJ2yvW04ex-28" value="Afficher tous les clients" style="rounded=1;whiteSpace=wrap;html=1;fillColor=none;spacingLeft=0;spacingTop=0;spacing=5;" vertex="1" parent="1">
          <mxGeometry x="820" y="350" width="120" height="60" as="geometry" />
        </mxCell>
        <mxCell id="CzH391TgKFOJ2yvW04ex-30" style="edgeStyle=orthogonalEdgeStyle;rounded=0;orthogonalLoop=1;jettySize=auto;html=1;exitX=0.5;exitY=1;exitDx=0;exitDy=0;entryX=0.5;entryY=0;entryDx=0;entryDy=0;" edge="1" parent="1" source="CzH391TgKFOJ2yvW04ex-31" target="CzH391TgKFOJ2yvW04ex-36">
          <mxGeometry relative="1" as="geometry" />
        </mxCell>
        <mxCell id="CzH391TgKFOJ2yvW04ex-31" value="" style="ellipse;fillColor=none;" vertex="1" parent="1">
          <mxGeometry x="1045" y="110" width="30" height="30" as="geometry" />
        </mxCell>
        <mxCell id="CzH391TgKFOJ2yvW04ex-32" value="" style="shape=note2;size=25;childLayout=stackLayout;horizontalStack=0;resizeParent=1;resizeParentMax=0;resizeLast=0;collapsible=0;marginBottom=0;html=1;container=1;fillColor=#fff2cc;strokeColor=#d6b656;" vertex="1" parent="1">
          <mxGeometry x="1165" y="100" width="160" height="80" as="geometry" />
        </mxCell>
        <mxCell id="CzH391TgKFOJ2yvW04ex-33" value="Évènement" style="text;html=1;strokeColor=none;fillColor=none;align=left;verticalAlign=middle;spacingLeft=4;spacingRight=4;overflow=hidden;rotatable=0;points=[[0,0.5],[1,0.5]];portConstraint=eastwest;whiteSpace=wrap;" vertex="1" parent="CzH391TgKFOJ2yvW04ex-32">
          <mxGeometry width="160" height="25" as="geometry" />
        </mxCell>
        <mxCell id="CzH391TgKFOJ2yvW04ex-34" value="Clique sur un onglet commande" style="text;html=1;strokeColor=none;fillColor=none;align=left;verticalAlign=middle;spacingLeft=4;spacingRight=4;overflow=hidden;rotatable=0;points=[[0,0.5],[1,0.5]];portConstraint=eastwest;whiteSpace=wrap;" vertex="1" parent="CzH391TgKFOJ2yvW04ex-32">
          <mxGeometry y="25" width="160" height="55" as="geometry" />
        </mxCell>
        <mxCell id="CzH391TgKFOJ2yvW04ex-35" style="edgeStyle=orthogonalEdgeStyle;rounded=0;orthogonalLoop=1;jettySize=auto;html=1;exitX=0.5;exitY=1;exitDx=0;exitDy=0;entryX=0.5;entryY=0;entryDx=0;entryDy=0;" edge="1" parent="1" source="CzH391TgKFOJ2yvW04ex-41" target="CzH391TgKFOJ2yvW04ex-37">
          <mxGeometry relative="1" as="geometry" />
        </mxCell>
        <mxCell id="CzH391TgKFOJ2yvW04ex-78" style="edgeStyle=orthogonalEdgeStyle;rounded=0;orthogonalLoop=1;jettySize=auto;html=1;exitX=0.5;exitY=1;exitDx=0;exitDy=0;entryX=0.5;entryY=0;entryDx=0;entryDy=0;" edge="1" parent="1" source="CzH391TgKFOJ2yvW04ex-36" target="CzH391TgKFOJ2yvW04ex-77">
          <mxGeometry relative="1" as="geometry" />
        </mxCell>
        <mxCell id="CzH391TgKFOJ2yvW04ex-36" value="Afficher l&#39;onglet &lt;br&gt;commande" style="rounded=1;whiteSpace=wrap;html=1;fillColor=none;spacingLeft=0;spacingTop=0;spacing=5;" vertex="1" parent="1">
          <mxGeometry x="1000" y="170" width="120" height="60" as="geometry" />
        </mxCell>
        <mxCell id="CzH391TgKFOJ2yvW04ex-37" value="" style="shape=sumEllipse;perimeter=ellipsePerimeter;html=1;backgroundOutline=1;fillColor=none;" vertex="1" parent="1">
          <mxGeometry x="1045" y="450" width="30" height="30" as="geometry" />
        </mxCell>
        <mxCell id="CzH391TgKFOJ2yvW04ex-39" value="Charger toutes les commandes depuis la BDD" style="rounded=1;whiteSpace=wrap;html=1;fillColor=none;spacingLeft=0;spacingTop=0;spacing=5;" vertex="1" parent="1">
          <mxGeometry x="1185" y="260" width="120" height="60" as="geometry" />
        </mxCell>
        <mxCell id="CzH391TgKFOJ2yvW04ex-40" value="" style="edgeStyle=orthogonalEdgeStyle;rounded=0;orthogonalLoop=1;jettySize=auto;html=1;exitX=0.5;exitY=1;exitDx=0;exitDy=0;entryX=0.5;entryY=0;entryDx=0;entryDy=0;" edge="1" parent="1" source="CzH391TgKFOJ2yvW04ex-39" target="CzH391TgKFOJ2yvW04ex-41">
          <mxGeometry relative="1" as="geometry">
            <mxPoint x="1245" y="320" as="sourcePoint" />
            <mxPoint x="1245" y="470" as="targetPoint" />
          </mxGeometry>
        </mxCell>
        <mxCell id="CzH391TgKFOJ2yvW04ex-41" value="Afficher toutes les commandes" style="rounded=1;whiteSpace=wrap;html=1;fillColor=none;spacingLeft=0;spacingTop=0;spacing=5;" vertex="1" parent="1">
          <mxGeometry x="1185" y="350" width="120" height="60" as="geometry" />
        </mxCell>
        <mxCell id="CzH391TgKFOJ2yvW04ex-42" style="edgeStyle=orthogonalEdgeStyle;rounded=0;orthogonalLoop=1;jettySize=auto;html=1;exitX=0.5;exitY=1;exitDx=0;exitDy=0;entryX=0.5;entryY=0;entryDx=0;entryDy=0;" edge="1" parent="1" source="CzH391TgKFOJ2yvW04ex-43" target="CzH391TgKFOJ2yvW04ex-48">
          <mxGeometry relative="1" as="geometry" />
        </mxCell>
        <mxCell id="CzH391TgKFOJ2yvW04ex-43" value="" style="ellipse;fillColor=none;" vertex="1" parent="1">
          <mxGeometry x="1415" y="110" width="30" height="30" as="geometry" />
        </mxCell>
        <mxCell id="CzH391TgKFOJ2yvW04ex-44" value="" style="shape=note2;size=25;childLayout=stackLayout;horizontalStack=0;resizeParent=1;resizeParentMax=0;resizeLast=0;collapsible=0;marginBottom=0;html=1;container=1;fillColor=#fff2cc;strokeColor=#d6b656;" vertex="1" parent="1">
          <mxGeometry x="1535" y="100" width="160" height="80" as="geometry" />
        </mxCell>
        <mxCell id="CzH391TgKFOJ2yvW04ex-45" value="Évènement" style="text;html=1;strokeColor=none;fillColor=none;align=left;verticalAlign=middle;spacingLeft=4;spacingRight=4;overflow=hidden;rotatable=0;points=[[0,0.5],[1,0.5]];portConstraint=eastwest;whiteSpace=wrap;" vertex="1" parent="CzH391TgKFOJ2yvW04ex-44">
          <mxGeometry width="160" height="25" as="geometry" />
        </mxCell>
        <mxCell id="CzH391TgKFOJ2yvW04ex-46" value="Clique sur un onglet stock" style="text;html=1;strokeColor=none;fillColor=none;align=left;verticalAlign=middle;spacingLeft=4;spacingRight=4;overflow=hidden;rotatable=0;points=[[0,0.5],[1,0.5]];portConstraint=eastwest;whiteSpace=wrap;" vertex="1" parent="CzH391TgKFOJ2yvW04ex-44">
          <mxGeometry y="25" width="160" height="55" as="geometry" />
        </mxCell>
        <mxCell id="CzH391TgKFOJ2yvW04ex-47" style="edgeStyle=orthogonalEdgeStyle;rounded=0;orthogonalLoop=1;jettySize=auto;html=1;exitX=0.5;exitY=1;exitDx=0;exitDy=0;entryX=0.5;entryY=0;entryDx=0;entryDy=0;" edge="1" parent="1" source="CzH391TgKFOJ2yvW04ex-53" target="CzH391TgKFOJ2yvW04ex-49">
          <mxGeometry relative="1" as="geometry" />
        </mxCell>
        <mxCell id="CzH391TgKFOJ2yvW04ex-48" value="Afficher l&#39;onglet &lt;br&gt;stock" style="rounded=1;whiteSpace=wrap;html=1;fillColor=none;spacingLeft=0;spacingTop=0;spacing=5;" vertex="1" parent="1">
          <mxGeometry x="1370" y="170" width="120" height="60" as="geometry" />
        </mxCell>
        <mxCell id="CzH391TgKFOJ2yvW04ex-49" value="" style="shape=sumEllipse;perimeter=ellipsePerimeter;html=1;backgroundOutline=1;fillColor=none;" vertex="1" parent="1">
          <mxGeometry x="1415" y="450" width="30" height="30" as="geometry" />
        </mxCell>
        <mxCell id="CzH391TgKFOJ2yvW04ex-50" value="" style="edgeStyle=orthogonalEdgeStyle;rounded=0;orthogonalLoop=1;jettySize=auto;html=1;exitX=0.5;exitY=1;exitDx=0;exitDy=0;entryX=0.5;entryY=0;entryDx=0;entryDy=0;" edge="1" parent="1" source="CzH391TgKFOJ2yvW04ex-48" target="CzH391TgKFOJ2yvW04ex-83">
          <mxGeometry relative="1" as="geometry">
            <mxPoint x="1430" y="230" as="sourcePoint" />
            <mxPoint x="1430" y="470" as="targetPoint" />
          </mxGeometry>
        </mxCell>
        <mxCell id="CzH391TgKFOJ2yvW04ex-51" value="Charger tous les produits depuis la BDD" style="rounded=1;whiteSpace=wrap;html=1;fillColor=none;spacingLeft=0;spacingTop=0;spacing=5;" vertex="1" parent="1">
          <mxGeometry x="1555" y="260" width="120" height="60" as="geometry" />
        </mxCell>
        <mxCell id="CzH391TgKFOJ2yvW04ex-52" value="" style="edgeStyle=orthogonalEdgeStyle;rounded=0;orthogonalLoop=1;jettySize=auto;html=1;exitX=0.5;exitY=1;exitDx=0;exitDy=0;entryX=0.5;entryY=0;entryDx=0;entryDy=0;" edge="1" parent="1" source="CzH391TgKFOJ2yvW04ex-51" target="CzH391TgKFOJ2yvW04ex-53">
          <mxGeometry relative="1" as="geometry">
            <mxPoint x="1615" y="320" as="sourcePoint" />
            <mxPoint x="1615" y="470" as="targetPoint" />
          </mxGeometry>
        </mxCell>
        <mxCell id="CzH391TgKFOJ2yvW04ex-53" value="Afficher tous les produits" style="rounded=1;whiteSpace=wrap;html=1;fillColor=none;spacingLeft=0;spacingTop=0;spacing=5;" vertex="1" parent="1">
          <mxGeometry x="1555" y="350" width="120" height="60" as="geometry" />
        </mxCell>
        <mxCell id="CzH391TgKFOJ2yvW04ex-69" style="edgeStyle=orthogonalEdgeStyle;rounded=0;orthogonalLoop=1;jettySize=auto;html=1;exitX=1;exitY=0.5;exitDx=0;exitDy=0;entryX=0;entryY=0.5;entryDx=0;entryDy=0;" edge="1" parent="1" source="CzH391TgKFOJ2yvW04ex-67" target="CzH391TgKFOJ2yvW04ex-26">
          <mxGeometry relative="1" as="geometry" />
        </mxCell>
        <mxCell id="CzH391TgKFOJ2yvW04ex-70" value="Non" style="edgeLabel;html=1;align=center;verticalAlign=middle;resizable=0;points=[];" vertex="1" connectable="0" parent="CzH391TgKFOJ2yvW04ex-69">
          <mxGeometry x="-0.5529" y="-1" relative="1" as="geometry">
            <mxPoint as="offset" />
          </mxGeometry>
        </mxCell>
        <mxCell id="CzH391TgKFOJ2yvW04ex-71" style="edgeStyle=orthogonalEdgeStyle;rounded=0;orthogonalLoop=1;jettySize=auto;html=1;exitX=0.5;exitY=1;exitDx=0;exitDy=0;entryX=0.5;entryY=0;entryDx=0;entryDy=0;" edge="1" parent="1" source="CzH391TgKFOJ2yvW04ex-67" target="CzH391TgKFOJ2yvW04ex-24">
          <mxGeometry relative="1" as="geometry" />
        </mxCell>
        <mxCell id="CzH391TgKFOJ2yvW04ex-72" value="Oui" style="edgeLabel;html=1;align=center;verticalAlign=middle;resizable=0;points=[];" vertex="1" connectable="0" parent="CzH391TgKFOJ2yvW04ex-71">
          <mxGeometry x="-0.6133" relative="1" as="geometry">
            <mxPoint as="offset" />
          </mxGeometry>
        </mxCell>
        <mxCell id="CzH391TgKFOJ2yvW04ex-67" value="Les clients &lt;br&gt;sont chargés" style="rhombus;whiteSpace=wrap;html=1;fillColor=none;aspect=fixed;" vertex="1" parent="1">
          <mxGeometry x="645" y="250" width="100" height="100" as="geometry" />
        </mxCell>
        <mxCell id="CzH391TgKFOJ2yvW04ex-73" style="edgeStyle=orthogonalEdgeStyle;rounded=0;orthogonalLoop=1;jettySize=auto;html=1;exitX=1;exitY=0.5;exitDx=0;exitDy=0;entryX=0;entryY=0.5;entryDx=0;entryDy=0;" edge="1" parent="1" source="CzH391TgKFOJ2yvW04ex-77">
          <mxGeometry relative="1" as="geometry">
            <mxPoint x="1185" y="290" as="targetPoint" />
          </mxGeometry>
        </mxCell>
        <mxCell id="CzH391TgKFOJ2yvW04ex-74" value="Non" style="edgeLabel;html=1;align=center;verticalAlign=middle;resizable=0;points=[];" vertex="1" connectable="0" parent="CzH391TgKFOJ2yvW04ex-73">
          <mxGeometry x="-0.5529" y="-1" relative="1" as="geometry">
            <mxPoint as="offset" />
          </mxGeometry>
        </mxCell>
        <mxCell id="CzH391TgKFOJ2yvW04ex-75" style="edgeStyle=orthogonalEdgeStyle;rounded=0;orthogonalLoop=1;jettySize=auto;html=1;exitX=0.5;exitY=1;exitDx=0;exitDy=0;entryX=0.5;entryY=0;entryDx=0;entryDy=0;" edge="1" parent="1" source="CzH391TgKFOJ2yvW04ex-77">
          <mxGeometry relative="1" as="geometry">
            <mxPoint x="1060" y="450" as="targetPoint" />
          </mxGeometry>
        </mxCell>
        <mxCell id="CzH391TgKFOJ2yvW04ex-76" value="Oui" style="edgeLabel;html=1;align=center;verticalAlign=middle;resizable=0;points=[];" vertex="1" connectable="0" parent="CzH391TgKFOJ2yvW04ex-75">
          <mxGeometry x="-0.6133" relative="1" as="geometry">
            <mxPoint as="offset" />
          </mxGeometry>
        </mxCell>
        <mxCell id="CzH391TgKFOJ2yvW04ex-77" value="Les &lt;br&gt;commandes &lt;br&gt;sont &lt;br&gt;chargés" style="rhombus;whiteSpace=wrap;html=1;fillColor=none;aspect=fixed;" vertex="1" parent="1">
          <mxGeometry x="1010" y="250" width="100" height="100" as="geometry" />
        </mxCell>
        <mxCell id="CzH391TgKFOJ2yvW04ex-79" style="edgeStyle=orthogonalEdgeStyle;rounded=0;orthogonalLoop=1;jettySize=auto;html=1;exitX=1;exitY=0.5;exitDx=0;exitDy=0;entryX=0;entryY=0.5;entryDx=0;entryDy=0;" edge="1" parent="1" source="CzH391TgKFOJ2yvW04ex-83">
          <mxGeometry relative="1" as="geometry">
            <mxPoint x="1555" y="290" as="targetPoint" />
          </mxGeometry>
        </mxCell>
        <mxCell id="CzH391TgKFOJ2yvW04ex-80" value="Non" style="edgeLabel;html=1;align=center;verticalAlign=middle;resizable=0;points=[];" vertex="1" connectable="0" parent="CzH391TgKFOJ2yvW04ex-79">
          <mxGeometry x="-0.5529" y="-1" relative="1" as="geometry">
            <mxPoint as="offset" />
          </mxGeometry>
        </mxCell>
        <mxCell id="CzH391TgKFOJ2yvW04ex-81" style="edgeStyle=orthogonalEdgeStyle;rounded=0;orthogonalLoop=1;jettySize=auto;html=1;exitX=0.5;exitY=1;exitDx=0;exitDy=0;entryX=0.5;entryY=0;entryDx=0;entryDy=0;" edge="1" parent="1" source="CzH391TgKFOJ2yvW04ex-83">
          <mxGeometry relative="1" as="geometry">
            <mxPoint x="1430" y="450" as="targetPoint" />
          </mxGeometry>
        </mxCell>
        <mxCell id="CzH391TgKFOJ2yvW04ex-82" value="Oui" style="edgeLabel;html=1;align=center;verticalAlign=middle;resizable=0;points=[];" vertex="1" connectable="0" parent="CzH391TgKFOJ2yvW04ex-81">
          <mxGeometry x="-0.6133" relative="1" as="geometry">
            <mxPoint as="offset" />
          </mxGeometry>
        </mxCell>
        <mxCell id="CzH391TgKFOJ2yvW04ex-83" value="Les produits&lt;br&gt;sont chargés" style="rhombus;whiteSpace=wrap;html=1;fillColor=none;aspect=fixed;" vertex="1" parent="1">
          <mxGeometry x="1380" y="250" width="100" height="100" as="geometry" />
        </mxCell>
        <mxCell id="CzH391TgKFOJ2yvW04ex-401" value="Onglet client" style="shape=umlFrame;whiteSpace=wrap;html=1;pointerEvents=0;recursiveResize=0;container=1;collapsible=0;width=160;fillColor=none;" vertex="1" parent="1">
          <mxGeometry x="280" y="670" width="3360" height="1390" as="geometry" />
        </mxCell>
        <mxCell id="CzH391TgKFOJ2yvW04ex-84" value="" style="ellipse;fillColor=none;" vertex="1" parent="CzH391TgKFOJ2yvW04ex-401">
          <mxGeometry x="142.5" y="114.5" width="30" height="30" as="geometry" />
        </mxCell>
        <mxCell id="CzH391TgKFOJ2yvW04ex-85" value="" style="shape=note2;size=25;childLayout=stackLayout;horizontalStack=0;resizeParent=1;resizeParentMax=0;resizeLast=0;collapsible=0;marginBottom=0;html=1;container=1;fillColor=#fff2cc;strokeColor=#d6b656;" vertex="1" parent="CzH391TgKFOJ2yvW04ex-401">
          <mxGeometry x="222.5" y="54.5" width="160" height="80" as="geometry" />
        </mxCell>
        <mxCell id="CzH391TgKFOJ2yvW04ex-86" value="Évènement" style="text;html=1;strokeColor=none;fillColor=none;align=left;verticalAlign=middle;spacingLeft=4;spacingRight=4;overflow=hidden;rotatable=0;points=[[0,0.5],[1,0.5]];portConstraint=eastwest;whiteSpace=wrap;" vertex="1" parent="CzH391TgKFOJ2yvW04ex-85">
          <mxGeometry width="160" height="25" as="geometry" />
        </mxCell>
        <mxCell id="CzH391TgKFOJ2yvW04ex-87" value="Le bouton Mettre à jour est cliqué" style="text;html=1;strokeColor=none;fillColor=none;align=left;verticalAlign=middle;spacingLeft=4;spacingRight=4;overflow=hidden;rotatable=0;points=[[0,0.5],[1,0.5]];portConstraint=eastwest;whiteSpace=wrap;" vertex="1" parent="CzH391TgKFOJ2yvW04ex-85">
          <mxGeometry y="25" width="160" height="55" as="geometry" />
        </mxCell>
        <mxCell id="CzH391TgKFOJ2yvW04ex-91" style="edgeStyle=orthogonalEdgeStyle;rounded=0;orthogonalLoop=1;jettySize=auto;html=1;exitX=0.5;exitY=1;exitDx=0;exitDy=0;entryX=0.5;entryY=0;entryDx=0;entryDy=0;" edge="1" parent="CzH391TgKFOJ2yvW04ex-401" source="CzH391TgKFOJ2yvW04ex-88">
          <mxGeometry relative="1" as="geometry">
            <mxPoint x="157.5" y="274.5" as="targetPoint" />
          </mxGeometry>
        </mxCell>
        <mxCell id="CzH391TgKFOJ2yvW04ex-88" value="Charger tous les clients depuis la BDD" style="rounded=1;whiteSpace=wrap;html=1;fillColor=none;spacingLeft=0;spacingTop=0;spacing=5;" vertex="1" parent="CzH391TgKFOJ2yvW04ex-401">
          <mxGeometry x="97.5" y="174.5" width="120" height="60" as="geometry" />
        </mxCell>
        <mxCell id="CzH391TgKFOJ2yvW04ex-89" style="edgeStyle=orthogonalEdgeStyle;rounded=0;orthogonalLoop=1;jettySize=auto;html=1;exitX=0.5;exitY=1;exitDx=0;exitDy=0;entryX=0.5;entryY=0;entryDx=0;entryDy=0;" edge="1" parent="CzH391TgKFOJ2yvW04ex-401" source="CzH391TgKFOJ2yvW04ex-84" target="CzH391TgKFOJ2yvW04ex-88">
          <mxGeometry relative="1" as="geometry" />
        </mxCell>
        <mxCell id="CzH391TgKFOJ2yvW04ex-101" style="edgeStyle=orthogonalEdgeStyle;rounded=0;orthogonalLoop=1;jettySize=auto;html=1;exitX=0.5;exitY=1;exitDx=0;exitDy=0;entryX=0.5;entryY=0;entryDx=0;entryDy=0;" edge="1" parent="CzH391TgKFOJ2yvW04ex-401">
          <mxGeometry relative="1" as="geometry">
            <mxPoint x="157.5" y="374.5" as="sourcePoint" />
            <mxPoint x="157.5" y="534.5" as="targetPoint" />
          </mxGeometry>
        </mxCell>
        <mxCell id="CzH391TgKFOJ2yvW04ex-113" value="Non" style="edgeLabel;html=1;align=center;verticalAlign=middle;resizable=0;points=[];" vertex="1" connectable="0" parent="CzH391TgKFOJ2yvW04ex-101">
          <mxGeometry x="-0.5997" y="1" relative="1" as="geometry">
            <mxPoint x="-1" y="-12" as="offset" />
          </mxGeometry>
        </mxCell>
        <mxCell id="CzH391TgKFOJ2yvW04ex-108" value="&lt;font style=&quot;font-size: 10px;&quot;&gt;Les données &lt;br&gt;en cours de saisie &lt;br&gt;ont changés&lt;/font&gt;" style="rhombus;whiteSpace=wrap;html=1;fillColor=none;aspect=fixed;" vertex="1" parent="CzH391TgKFOJ2yvW04ex-401">
          <mxGeometry x="252.5" y="274.5" width="100" height="100" as="geometry" />
        </mxCell>
        <mxCell id="CzH391TgKFOJ2yvW04ex-110" value="Afficher une fenêtre : annuler la saisie" style="rounded=1;whiteSpace=wrap;html=1;fillColor=none;spacingLeft=0;spacingTop=0;spacing=5;" vertex="1" parent="CzH391TgKFOJ2yvW04ex-401">
          <mxGeometry x="402.5" y="294.5" width="120" height="60" as="geometry" />
        </mxCell>
        <mxCell id="CzH391TgKFOJ2yvW04ex-106" style="edgeStyle=orthogonalEdgeStyle;rounded=0;orthogonalLoop=1;jettySize=auto;html=1;exitX=1;exitY=0.5;exitDx=0;exitDy=0;entryX=0;entryY=0.5;entryDx=0;entryDy=0;" edge="1" parent="CzH391TgKFOJ2yvW04ex-401" source="CzH391TgKFOJ2yvW04ex-108" target="CzH391TgKFOJ2yvW04ex-110">
          <mxGeometry relative="1" as="geometry" />
        </mxCell>
        <mxCell id="CzH391TgKFOJ2yvW04ex-107" value="Oui" style="edgeLabel;html=1;align=center;verticalAlign=middle;resizable=0;points=[];" vertex="1" connectable="0" parent="CzH391TgKFOJ2yvW04ex-106">
          <mxGeometry x="-0.1981" y="1" relative="1" as="geometry">
            <mxPoint as="offset" />
          </mxGeometry>
        </mxCell>
        <mxCell id="CzH391TgKFOJ2yvW04ex-122" style="edgeStyle=orthogonalEdgeStyle;rounded=0;orthogonalLoop=1;jettySize=auto;html=1;exitX=1;exitY=0.5;exitDx=0;exitDy=0;entryX=0.5;entryY=0;entryDx=0;entryDy=0;" edge="1" parent="CzH391TgKFOJ2yvW04ex-401" source="CzH391TgKFOJ2yvW04ex-111">
          <mxGeometry relative="1" as="geometry">
            <mxPoint x="157.5" y="534.5" as="targetPoint" />
            <Array as="points">
              <mxPoint x="702.5" y="324.5" />
              <mxPoint x="702.5" y="494.5" />
              <mxPoint x="157.5" y="494.5" />
            </Array>
          </mxGeometry>
        </mxCell>
        <mxCell id="CzH391TgKFOJ2yvW04ex-123" value="Non" style="edgeLabel;html=1;align=center;verticalAlign=middle;resizable=0;points=[];" vertex="1" connectable="0" parent="CzH391TgKFOJ2yvW04ex-122">
          <mxGeometry x="-0.9052" y="3" relative="1" as="geometry">
            <mxPoint as="offset" />
          </mxGeometry>
        </mxCell>
        <mxCell id="CzH391TgKFOJ2yvW04ex-111" value="&lt;span style=&quot;font-size: 10px;&quot;&gt;Annuler la saisie&lt;/span&gt;" style="rhombus;whiteSpace=wrap;html=1;fillColor=none;aspect=fixed;" vertex="1" parent="CzH391TgKFOJ2yvW04ex-401">
          <mxGeometry x="582.5" y="274.5" width="100" height="100" as="geometry" />
        </mxCell>
        <mxCell id="CzH391TgKFOJ2yvW04ex-109" style="edgeStyle=orthogonalEdgeStyle;rounded=0;orthogonalLoop=1;jettySize=auto;html=1;exitX=1;exitY=0.5;exitDx=0;exitDy=0;entryX=0;entryY=0.5;entryDx=0;entryDy=0;" edge="1" parent="CzH391TgKFOJ2yvW04ex-401" source="CzH391TgKFOJ2yvW04ex-110" target="CzH391TgKFOJ2yvW04ex-111">
          <mxGeometry relative="1" as="geometry" />
        </mxCell>
        <mxCell id="CzH391TgKFOJ2yvW04ex-114" style="edgeStyle=orthogonalEdgeStyle;rounded=0;orthogonalLoop=1;jettySize=auto;html=1;exitX=1;exitY=0.5;exitDx=0;exitDy=0;entryX=0;entryY=0.5;entryDx=0;entryDy=0;" edge="1" parent="CzH391TgKFOJ2yvW04ex-401" source="CzH391TgKFOJ2yvW04ex-112" target="CzH391TgKFOJ2yvW04ex-108">
          <mxGeometry relative="1" as="geometry" />
        </mxCell>
        <mxCell id="CzH391TgKFOJ2yvW04ex-112" value="&lt;span style=&quot;font-size: 10px;&quot;&gt;Un client était sélectionné&lt;/span&gt;" style="rhombus;whiteSpace=wrap;html=1;fillColor=none;aspect=fixed;" vertex="1" parent="CzH391TgKFOJ2yvW04ex-401">
          <mxGeometry x="107.5" y="274.5" width="100" height="100" as="geometry" />
        </mxCell>
        <mxCell id="CzH391TgKFOJ2yvW04ex-119" style="edgeStyle=orthogonalEdgeStyle;rounded=0;orthogonalLoop=1;jettySize=auto;html=1;exitX=0;exitY=0.5;exitDx=0;exitDy=0;entryX=0.5;entryY=0;entryDx=0;entryDy=0;" edge="1" parent="CzH391TgKFOJ2yvW04ex-401" source="CzH391TgKFOJ2yvW04ex-116">
          <mxGeometry relative="1" as="geometry">
            <mxPoint x="157.5" y="534.5" as="targetPoint" />
          </mxGeometry>
        </mxCell>
        <mxCell id="CzH391TgKFOJ2yvW04ex-116" value="Mettre à jour les champs de texte" style="rounded=1;whiteSpace=wrap;html=1;fillColor=none;spacingLeft=0;spacingTop=0;spacing=5;" vertex="1" parent="CzH391TgKFOJ2yvW04ex-401">
          <mxGeometry x="242.5" y="414.5" width="120" height="60" as="geometry" />
        </mxCell>
        <mxCell id="CzH391TgKFOJ2yvW04ex-117" style="edgeStyle=orthogonalEdgeStyle;rounded=0;orthogonalLoop=1;jettySize=auto;html=1;exitX=0.5;exitY=1;exitDx=0;exitDy=0;entryX=0.5;entryY=0;entryDx=0;entryDy=0;" edge="1" parent="CzH391TgKFOJ2yvW04ex-401" source="CzH391TgKFOJ2yvW04ex-108" target="CzH391TgKFOJ2yvW04ex-116">
          <mxGeometry relative="1" as="geometry" />
        </mxCell>
        <mxCell id="CzH391TgKFOJ2yvW04ex-118" value="Non" style="edgeLabel;html=1;align=center;verticalAlign=middle;resizable=0;points=[];" vertex="1" connectable="0" parent="CzH391TgKFOJ2yvW04ex-117">
          <mxGeometry x="-0.4357" y="-2" relative="1" as="geometry">
            <mxPoint y="2" as="offset" />
          </mxGeometry>
        </mxCell>
        <mxCell id="CzH391TgKFOJ2yvW04ex-120" style="edgeStyle=orthogonalEdgeStyle;rounded=0;orthogonalLoop=1;jettySize=auto;html=1;exitX=0.5;exitY=1;exitDx=0;exitDy=0;entryX=1;entryY=0.5;entryDx=0;entryDy=0;" edge="1" parent="CzH391TgKFOJ2yvW04ex-401" source="CzH391TgKFOJ2yvW04ex-111" target="CzH391TgKFOJ2yvW04ex-116">
          <mxGeometry relative="1" as="geometry" />
        </mxCell>
        <mxCell id="CzH391TgKFOJ2yvW04ex-121" value="Oui" style="edgeLabel;html=1;align=center;verticalAlign=middle;resizable=0;points=[];" vertex="1" connectable="0" parent="CzH391TgKFOJ2yvW04ex-120">
          <mxGeometry x="-0.9246" y="-1" relative="1" as="geometry">
            <mxPoint as="offset" />
          </mxGeometry>
        </mxCell>
        <mxCell id="CzH391TgKFOJ2yvW04ex-125" value="" style="shape=sumEllipse;perimeter=ellipsePerimeter;html=1;backgroundOutline=1;fillColor=none;" vertex="1" parent="CzH391TgKFOJ2yvW04ex-401">
          <mxGeometry x="142.5" y="855.5" width="30" height="30" as="geometry" />
        </mxCell>
        <mxCell id="CzH391TgKFOJ2yvW04ex-133" style="edgeStyle=orthogonalEdgeStyle;rounded=0;orthogonalLoop=1;jettySize=auto;html=1;exitX=0.5;exitY=1;exitDx=0;exitDy=0;entryX=0.5;entryY=0;entryDx=0;entryDy=0;" edge="1" parent="CzH391TgKFOJ2yvW04ex-401" source="CzH391TgKFOJ2yvW04ex-128">
          <mxGeometry relative="1" as="geometry">
            <mxPoint x="916.5" y="185.5" as="targetPoint" />
          </mxGeometry>
        </mxCell>
        <mxCell id="CzH391TgKFOJ2yvW04ex-128" value="" style="ellipse;fillColor=none;" vertex="1" parent="CzH391TgKFOJ2yvW04ex-401">
          <mxGeometry x="901.5" y="114.5" width="30" height="30" as="geometry" />
        </mxCell>
        <mxCell id="CzH391TgKFOJ2yvW04ex-129" value="" style="shape=note2;size=25;childLayout=stackLayout;horizontalStack=0;resizeParent=1;resizeParentMax=0;resizeLast=0;collapsible=0;marginBottom=0;html=1;container=1;fillColor=#fff2cc;strokeColor=#d6b656;" vertex="1" parent="CzH391TgKFOJ2yvW04ex-401">
          <mxGeometry x="982.5" y="65.5" width="160" height="80" as="geometry" />
        </mxCell>
        <mxCell id="CzH391TgKFOJ2yvW04ex-130" value="Évènement" style="text;html=1;strokeColor=none;fillColor=none;align=left;verticalAlign=middle;spacingLeft=4;spacingRight=4;overflow=hidden;rotatable=0;points=[[0,0.5],[1,0.5]];portConstraint=eastwest;whiteSpace=wrap;" vertex="1" parent="CzH391TgKFOJ2yvW04ex-129">
          <mxGeometry width="160" height="25" as="geometry" />
        </mxCell>
        <mxCell id="CzH391TgKFOJ2yvW04ex-131" value="Le bouton Ajouté est cliqué" style="text;html=1;strokeColor=none;fillColor=none;align=left;verticalAlign=middle;spacingLeft=4;spacingRight=4;overflow=hidden;rotatable=0;points=[[0,0.5],[1,0.5]];portConstraint=eastwest;whiteSpace=wrap;" vertex="1" parent="CzH391TgKFOJ2yvW04ex-129">
          <mxGeometry y="25" width="160" height="55" as="geometry" />
        </mxCell>
        <mxCell id="CzH391TgKFOJ2yvW04ex-134" value="&lt;span style=&quot;font-size: 10px;&quot;&gt;Une saisie est&lt;br&gt;&amp;nbsp;en cours&lt;/span&gt;" style="rhombus;whiteSpace=wrap;html=1;fillColor=none;aspect=fixed;" vertex="1" parent="CzH391TgKFOJ2yvW04ex-401">
          <mxGeometry x="866.5" y="185.5" width="100" height="100" as="geometry" />
        </mxCell>
        <mxCell id="CzH391TgKFOJ2yvW04ex-135" value="Afficher une fenêtre : annuler la saisie" style="rounded=1;whiteSpace=wrap;html=1;fillColor=none;spacingLeft=0;spacingTop=0;spacing=5;" vertex="1" parent="CzH391TgKFOJ2yvW04ex-401">
          <mxGeometry x="1002.5" y="205.5" width="120" height="60" as="geometry" />
        </mxCell>
        <mxCell id="CzH391TgKFOJ2yvW04ex-136" style="edgeStyle=orthogonalEdgeStyle;rounded=0;orthogonalLoop=1;jettySize=auto;html=1;exitX=1;exitY=0.5;exitDx=0;exitDy=0;entryX=0;entryY=0.5;entryDx=0;entryDy=0;" edge="1" parent="CzH391TgKFOJ2yvW04ex-401" source="CzH391TgKFOJ2yvW04ex-134" target="CzH391TgKFOJ2yvW04ex-135">
          <mxGeometry relative="1" as="geometry" />
        </mxCell>
        <mxCell id="CzH391TgKFOJ2yvW04ex-137" value="&lt;span style=&quot;font-size: 10px;&quot;&gt;Annuler la saisie&lt;/span&gt;" style="rhombus;whiteSpace=wrap;html=1;fillColor=none;aspect=fixed;" vertex="1" parent="CzH391TgKFOJ2yvW04ex-401">
          <mxGeometry x="1163" y="185.5" width="100" height="100" as="geometry" />
        </mxCell>
        <mxCell id="CzH391TgKFOJ2yvW04ex-138" style="edgeStyle=orthogonalEdgeStyle;rounded=0;orthogonalLoop=1;jettySize=auto;html=1;exitX=1;exitY=0.5;exitDx=0;exitDy=0;entryX=0;entryY=0.5;entryDx=0;entryDy=0;" edge="1" parent="CzH391TgKFOJ2yvW04ex-401" source="CzH391TgKFOJ2yvW04ex-135" target="CzH391TgKFOJ2yvW04ex-137">
          <mxGeometry relative="1" as="geometry" />
        </mxCell>
        <mxCell id="CzH391TgKFOJ2yvW04ex-139" value="Vider les champs et sélectionner la ligne vide" style="rounded=1;whiteSpace=wrap;html=1;fillColor=none;spacingLeft=0;spacingTop=0;spacing=5;" vertex="1" parent="CzH391TgKFOJ2yvW04ex-401">
          <mxGeometry x="856.5" y="345.5" width="120" height="60" as="geometry" />
        </mxCell>
        <mxCell id="CzH391TgKFOJ2yvW04ex-140" style="edgeStyle=orthogonalEdgeStyle;rounded=0;orthogonalLoop=1;jettySize=auto;html=1;exitX=0.5;exitY=1;exitDx=0;exitDy=0;entryX=0.5;entryY=0;entryDx=0;entryDy=0;" edge="1" parent="CzH391TgKFOJ2yvW04ex-401" source="CzH391TgKFOJ2yvW04ex-134" target="CzH391TgKFOJ2yvW04ex-139">
          <mxGeometry relative="1" as="geometry" />
        </mxCell>
        <mxCell id="CzH391TgKFOJ2yvW04ex-141" style="edgeStyle=orthogonalEdgeStyle;rounded=0;orthogonalLoop=1;jettySize=auto;html=1;exitX=0.5;exitY=1;exitDx=0;exitDy=0;entryX=0.5;entryY=0;entryDx=0;entryDy=0;" edge="1" parent="CzH391TgKFOJ2yvW04ex-401" source="CzH391TgKFOJ2yvW04ex-137" target="CzH391TgKFOJ2yvW04ex-139">
          <mxGeometry relative="1" as="geometry" />
        </mxCell>
        <mxCell id="CzH391TgKFOJ2yvW04ex-142" value="Oui" style="edgeLabel;html=1;align=center;verticalAlign=middle;resizable=0;points=[];" vertex="1" connectable="0" parent="CzH391TgKFOJ2yvW04ex-141">
          <mxGeometry x="-0.9182" y="1" relative="1" as="geometry">
            <mxPoint as="offset" />
          </mxGeometry>
        </mxCell>
        <mxCell id="CzH391TgKFOJ2yvW04ex-144" value="" style="shape=sumEllipse;perimeter=ellipsePerimeter;html=1;backgroundOutline=1;fillColor=none;" vertex="1" parent="CzH391TgKFOJ2yvW04ex-401">
          <mxGeometry x="901.5" y="465.5" width="30" height="30" as="geometry" />
        </mxCell>
        <mxCell id="CzH391TgKFOJ2yvW04ex-146" style="edgeStyle=orthogonalEdgeStyle;rounded=0;orthogonalLoop=1;jettySize=auto;html=1;exitX=1;exitY=0.5;exitDx=0;exitDy=0;entryX=0.5;entryY=0;entryDx=0;entryDy=0;" edge="1" parent="CzH391TgKFOJ2yvW04ex-401" source="CzH391TgKFOJ2yvW04ex-137" target="CzH391TgKFOJ2yvW04ex-144">
          <mxGeometry relative="1" as="geometry">
            <Array as="points">
              <mxPoint x="1282.5" y="235.5" />
              <mxPoint x="1282.5" y="435.5" />
              <mxPoint x="916.5" y="435.5" />
            </Array>
          </mxGeometry>
        </mxCell>
        <mxCell id="CzH391TgKFOJ2yvW04ex-147" value="Non" style="edgeLabel;html=1;align=center;verticalAlign=middle;resizable=0;points=[];" vertex="1" connectable="0" parent="CzH391TgKFOJ2yvW04ex-146">
          <mxGeometry x="-0.894" y="1" relative="1" as="geometry">
            <mxPoint as="offset" />
          </mxGeometry>
        </mxCell>
        <mxCell id="CzH391TgKFOJ2yvW04ex-145" style="edgeStyle=orthogonalEdgeStyle;rounded=0;orthogonalLoop=1;jettySize=auto;html=1;exitX=0.5;exitY=1;exitDx=0;exitDy=0;entryX=0.5;entryY=0;entryDx=0;entryDy=0;" edge="1" parent="CzH391TgKFOJ2yvW04ex-401" source="CzH391TgKFOJ2yvW04ex-139" target="CzH391TgKFOJ2yvW04ex-144">
          <mxGeometry relative="1" as="geometry" />
        </mxCell>
        <mxCell id="CzH391TgKFOJ2yvW04ex-150" value="&lt;span style=&quot;font-size: 10px;&quot;&gt;Un filtre est &lt;br&gt;appliqué&lt;/span&gt;" style="rhombus;whiteSpace=wrap;html=1;fillColor=none;aspect=fixed;" vertex="1" parent="CzH391TgKFOJ2yvW04ex-401">
          <mxGeometry x="107.5" y="535.5" width="100" height="100" as="geometry" />
        </mxCell>
        <mxCell id="CzH391TgKFOJ2yvW04ex-154" value="" style="edgeStyle=orthogonalEdgeStyle;rounded=0;orthogonalLoop=1;jettySize=auto;html=1;exitX=0.5;exitY=1;exitDx=0;exitDy=0;entryX=0.5;entryY=0;entryDx=0;entryDy=0;" edge="1" parent="CzH391TgKFOJ2yvW04ex-401" source="CzH391TgKFOJ2yvW04ex-150" target="CzH391TgKFOJ2yvW04ex-153">
          <mxGeometry relative="1" as="geometry">
            <mxPoint x="157.5" y="855.5" as="targetPoint" />
            <mxPoint x="157.5" y="635.5" as="sourcePoint" />
          </mxGeometry>
        </mxCell>
        <mxCell id="CzH391TgKFOJ2yvW04ex-155" value="Non" style="edgeLabel;html=1;align=center;verticalAlign=middle;resizable=0;points=[];" vertex="1" connectable="0" parent="CzH391TgKFOJ2yvW04ex-154">
          <mxGeometry x="-0.7833" y="-2" relative="1" as="geometry">
            <mxPoint as="offset" />
          </mxGeometry>
        </mxCell>
        <mxCell id="CzH391TgKFOJ2yvW04ex-153" value="Remplacer les données affichées dans la grille" style="rounded=1;whiteSpace=wrap;html=1;fillColor=none;spacingLeft=0;spacingTop=0;spacing=5;" vertex="1" parent="CzH391TgKFOJ2yvW04ex-401">
          <mxGeometry x="97.5" y="735.5" width="120" height="60" as="geometry" />
        </mxCell>
        <mxCell id="CzH391TgKFOJ2yvW04ex-124" style="edgeStyle=orthogonalEdgeStyle;rounded=0;orthogonalLoop=1;jettySize=auto;html=1;exitX=0.5;exitY=1;exitDx=0;exitDy=0;entryX=0.5;entryY=0;entryDx=0;entryDy=0;" edge="1" parent="CzH391TgKFOJ2yvW04ex-401" source="CzH391TgKFOJ2yvW04ex-153" target="CzH391TgKFOJ2yvW04ex-125">
          <mxGeometry relative="1" as="geometry">
            <mxPoint x="157.71739130434787" y="634.5" as="targetPoint" />
          </mxGeometry>
        </mxCell>
        <mxCell id="CzH391TgKFOJ2yvW04ex-158" style="edgeStyle=orthogonalEdgeStyle;rounded=0;orthogonalLoop=1;jettySize=auto;html=1;exitX=0;exitY=0.5;exitDx=0;exitDy=0;entryX=0.5;entryY=0;entryDx=0;entryDy=0;" edge="1" parent="CzH391TgKFOJ2yvW04ex-401" source="CzH391TgKFOJ2yvW04ex-156" target="CzH391TgKFOJ2yvW04ex-153">
          <mxGeometry relative="1" as="geometry" />
        </mxCell>
        <mxCell id="CzH391TgKFOJ2yvW04ex-156" value="Appliquer le filtre sur les données" style="rounded=1;whiteSpace=wrap;html=1;fillColor=none;spacingLeft=0;spacingTop=0;spacing=5;" vertex="1" parent="CzH391TgKFOJ2yvW04ex-401">
          <mxGeometry x="242.5" y="645.5" width="120" height="60" as="geometry" />
        </mxCell>
        <mxCell id="CzH391TgKFOJ2yvW04ex-157" style="edgeStyle=orthogonalEdgeStyle;rounded=0;orthogonalLoop=1;jettySize=auto;html=1;exitX=1;exitY=0.5;exitDx=0;exitDy=0;entryX=0.5;entryY=0;entryDx=0;entryDy=0;" edge="1" parent="CzH391TgKFOJ2yvW04ex-401" source="CzH391TgKFOJ2yvW04ex-150" target="CzH391TgKFOJ2yvW04ex-156">
          <mxGeometry relative="1" as="geometry" />
        </mxCell>
        <mxCell id="CzH391TgKFOJ2yvW04ex-159" value="Oui" style="edgeLabel;html=1;align=center;verticalAlign=middle;resizable=0;points=[];" vertex="1" connectable="0" parent="CzH391TgKFOJ2yvW04ex-157">
          <mxGeometry x="-0.7448" y="-2" relative="1" as="geometry">
            <mxPoint as="offset" />
          </mxGeometry>
        </mxCell>
        <mxCell id="CzH391TgKFOJ2yvW04ex-160" value="" style="ellipse;fillColor=none;" vertex="1" parent="CzH391TgKFOJ2yvW04ex-401">
          <mxGeometry x="1457.5" y="114.5" width="30" height="30" as="geometry" />
        </mxCell>
        <mxCell id="CzH391TgKFOJ2yvW04ex-161" value="" style="shape=note2;size=25;childLayout=stackLayout;horizontalStack=0;resizeParent=1;resizeParentMax=0;resizeLast=0;collapsible=0;marginBottom=0;html=1;container=1;fillColor=#fff2cc;strokeColor=#d6b656;" vertex="1" parent="CzH391TgKFOJ2yvW04ex-401">
          <mxGeometry x="1538.5" y="65.5" width="160" height="80" as="geometry" />
        </mxCell>
        <mxCell id="CzH391TgKFOJ2yvW04ex-162" value="Évènement" style="text;html=1;strokeColor=none;fillColor=none;align=left;verticalAlign=middle;spacingLeft=4;spacingRight=4;overflow=hidden;rotatable=0;points=[[0,0.5],[1,0.5]];portConstraint=eastwest;whiteSpace=wrap;" vertex="1" parent="CzH391TgKFOJ2yvW04ex-161">
          <mxGeometry width="160" height="25" as="geometry" />
        </mxCell>
        <mxCell id="CzH391TgKFOJ2yvW04ex-163" value="Le bouton Delete/Cancel est cliqué" style="text;html=1;strokeColor=none;fillColor=none;align=left;verticalAlign=middle;spacingLeft=4;spacingRight=4;overflow=hidden;rotatable=0;points=[[0,0.5],[1,0.5]];portConstraint=eastwest;whiteSpace=wrap;" vertex="1" parent="CzH391TgKFOJ2yvW04ex-161">
          <mxGeometry y="25" width="160" height="55" as="geometry" />
        </mxCell>
        <mxCell id="CzH391TgKFOJ2yvW04ex-170" style="edgeStyle=orthogonalEdgeStyle;rounded=0;orthogonalLoop=1;jettySize=auto;html=1;exitX=0.5;exitY=1;exitDx=0;exitDy=0;entryX=0.5;entryY=0;entryDx=0;entryDy=0;" edge="1" parent="CzH391TgKFOJ2yvW04ex-401">
          <mxGeometry relative="1" as="geometry">
            <mxPoint x="1472.5" y="144.5" as="sourcePoint" />
            <mxPoint x="1472.5" y="194.5" as="targetPoint" />
          </mxGeometry>
        </mxCell>
        <mxCell id="CzH391TgKFOJ2yvW04ex-171" value="&lt;span style=&quot;font-size: 10px;&quot;&gt;Confirmé&lt;/span&gt;" style="rhombus;whiteSpace=wrap;html=1;fillColor=none;aspect=fixed;" vertex="1" parent="CzH391TgKFOJ2yvW04ex-401">
          <mxGeometry x="1422.5" y="289.5" width="100" height="100" as="geometry" />
        </mxCell>
        <mxCell id="CzH391TgKFOJ2yvW04ex-174" style="edgeStyle=orthogonalEdgeStyle;rounded=0;orthogonalLoop=1;jettySize=auto;html=1;exitX=0.5;exitY=1;exitDx=0;exitDy=0;entryX=0.5;entryY=0;entryDx=0;entryDy=0;" edge="1" parent="CzH391TgKFOJ2yvW04ex-401" source="CzH391TgKFOJ2yvW04ex-173" target="CzH391TgKFOJ2yvW04ex-171">
          <mxGeometry relative="1" as="geometry" />
        </mxCell>
        <mxCell id="CzH391TgKFOJ2yvW04ex-173" value="Afficher un fenêtre de confirmation" style="rounded=1;whiteSpace=wrap;html=1;fillColor=none;spacingLeft=0;spacingTop=0;spacing=5;" vertex="1" parent="CzH391TgKFOJ2yvW04ex-401">
          <mxGeometry x="1412.5" y="194.5" width="120" height="60" as="geometry" />
        </mxCell>
        <mxCell id="CzH391TgKFOJ2yvW04ex-175" value="Supprimer les adresses correspondant aux clients" style="rounded=1;whiteSpace=wrap;html=1;fillColor=none;spacingLeft=0;spacingTop=0;spacing=5;" vertex="1" parent="CzH391TgKFOJ2yvW04ex-401">
          <mxGeometry x="1576.5" y="435.5" width="144" height="60" as="geometry" />
        </mxCell>
        <mxCell id="CzH391TgKFOJ2yvW04ex-178" value="Mettre à jour la grille" style="rounded=1;whiteSpace=wrap;html=1;fillColor=none;spacingLeft=0;spacingTop=0;spacing=5;" vertex="1" parent="CzH391TgKFOJ2yvW04ex-401">
          <mxGeometry x="1588.5" y="635.5" width="120" height="60" as="geometry" />
        </mxCell>
        <mxCell id="CzH391TgKFOJ2yvW04ex-180" value="" style="shape=sumEllipse;perimeter=ellipsePerimeter;html=1;backgroundOutline=1;fillColor=none;" vertex="1" parent="CzH391TgKFOJ2yvW04ex-401">
          <mxGeometry x="1457.5" y="815.5" width="30" height="30" as="geometry" />
        </mxCell>
        <mxCell id="CzH391TgKFOJ2yvW04ex-181" style="edgeStyle=orthogonalEdgeStyle;rounded=0;orthogonalLoop=1;jettySize=auto;html=1;exitX=0.5;exitY=1;exitDx=0;exitDy=0;entryX=0.5;entryY=0;entryDx=0;entryDy=0;" edge="1" parent="CzH391TgKFOJ2yvW04ex-401" source="CzH391TgKFOJ2yvW04ex-171" target="CzH391TgKFOJ2yvW04ex-180">
          <mxGeometry relative="1" as="geometry" />
        </mxCell>
        <mxCell id="CzH391TgKFOJ2yvW04ex-182" value="Non" style="edgeLabel;html=1;align=center;verticalAlign=middle;resizable=0;points=[];" vertex="1" connectable="0" parent="CzH391TgKFOJ2yvW04ex-181">
          <mxGeometry x="-0.7206" y="4" relative="1" as="geometry">
            <mxPoint x="-4" y="-24" as="offset" />
          </mxGeometry>
        </mxCell>
        <mxCell id="CzH391TgKFOJ2yvW04ex-183" style="edgeStyle=orthogonalEdgeStyle;rounded=0;orthogonalLoop=1;jettySize=auto;html=1;exitX=0;exitY=0.5;exitDx=0;exitDy=0;entryX=0.5;entryY=0;entryDx=0;entryDy=0;" edge="1" parent="CzH391TgKFOJ2yvW04ex-401" source="CzH391TgKFOJ2yvW04ex-178" target="CzH391TgKFOJ2yvW04ex-180">
          <mxGeometry relative="1" as="geometry" />
        </mxCell>
        <mxCell id="CzH391TgKFOJ2yvW04ex-194" style="edgeStyle=orthogonalEdgeStyle;rounded=0;orthogonalLoop=1;jettySize=auto;html=1;exitX=0.5;exitY=1;exitDx=0;exitDy=0;entryX=0.5;entryY=0;entryDx=0;entryDy=0;" edge="1" parent="CzH391TgKFOJ2yvW04ex-401" source="CzH391TgKFOJ2yvW04ex-190" target="CzH391TgKFOJ2yvW04ex-175">
          <mxGeometry relative="1" as="geometry" />
        </mxCell>
        <mxCell id="CzH391TgKFOJ2yvW04ex-196" value="Non" style="edgeLabel;html=1;align=center;verticalAlign=middle;resizable=0;points=[];" vertex="1" connectable="0" parent="CzH391TgKFOJ2yvW04ex-194">
          <mxGeometry x="-0.3865" y="-1" relative="1" as="geometry">
            <mxPoint y="-1" as="offset" />
          </mxGeometry>
        </mxCell>
        <mxCell id="CzH391TgKFOJ2yvW04ex-190" value="&lt;span style=&quot;font-size: 10px;&quot;&gt;Une saisie est&lt;br&gt;&amp;nbsp;en cours&lt;/span&gt;" style="rhombus;whiteSpace=wrap;html=1;fillColor=none;aspect=fixed;" vertex="1" parent="CzH391TgKFOJ2yvW04ex-401">
          <mxGeometry x="1598.5" y="289.5" width="100" height="100" as="geometry" />
        </mxCell>
        <mxCell id="CzH391TgKFOJ2yvW04ex-192" style="edgeStyle=orthogonalEdgeStyle;rounded=0;orthogonalLoop=1;jettySize=auto;html=1;exitX=1;exitY=0.5;exitDx=0;exitDy=0;entryX=0;entryY=0.5;entryDx=0;entryDy=0;" edge="1" parent="CzH391TgKFOJ2yvW04ex-401" source="CzH391TgKFOJ2yvW04ex-171" target="CzH391TgKFOJ2yvW04ex-190">
          <mxGeometry relative="1" as="geometry" />
        </mxCell>
        <mxCell id="CzH391TgKFOJ2yvW04ex-193" value="Oiu" style="edgeLabel;html=1;align=center;verticalAlign=middle;resizable=0;points=[];" vertex="1" connectable="0" parent="CzH391TgKFOJ2yvW04ex-192">
          <mxGeometry x="-0.5673" y="-2" relative="1" as="geometry">
            <mxPoint as="offset" />
          </mxGeometry>
        </mxCell>
        <mxCell id="CzH391TgKFOJ2yvW04ex-197" style="edgeStyle=orthogonalEdgeStyle;rounded=0;orthogonalLoop=1;jettySize=auto;html=1;exitX=0.5;exitY=1;exitDx=0;exitDy=0;entryX=0.5;entryY=0;entryDx=0;entryDy=0;" edge="1" parent="CzH391TgKFOJ2yvW04ex-401" source="CzH391TgKFOJ2yvW04ex-191" target="CzH391TgKFOJ2yvW04ex-180">
          <mxGeometry relative="1" as="geometry">
            <Array as="points">
              <mxPoint x="1832.5" y="725.5" />
              <mxPoint x="1472.5" y="725.5" />
            </Array>
          </mxGeometry>
        </mxCell>
        <mxCell id="CzH391TgKFOJ2yvW04ex-191" value="Vider tous les champs de saisie" style="rounded=1;whiteSpace=wrap;html=1;fillColor=none;spacingLeft=0;spacingTop=0;spacing=5;" vertex="1" parent="CzH391TgKFOJ2yvW04ex-401">
          <mxGeometry x="1772.5" y="309.5" width="120" height="60" as="geometry" />
        </mxCell>
        <mxCell id="CzH391TgKFOJ2yvW04ex-187" style="edgeStyle=orthogonalEdgeStyle;rounded=0;orthogonalLoop=1;jettySize=auto;html=1;exitX=1;exitY=0.5;exitDx=0;exitDy=0;entryX=0;entryY=0.5;entryDx=0;entryDy=0;" edge="1" parent="CzH391TgKFOJ2yvW04ex-401" source="CzH391TgKFOJ2yvW04ex-190" target="CzH391TgKFOJ2yvW04ex-191">
          <mxGeometry relative="1" as="geometry" />
        </mxCell>
        <mxCell id="CzH391TgKFOJ2yvW04ex-188" value="Oui" style="edgeLabel;html=1;align=center;verticalAlign=middle;resizable=0;points=[];" vertex="1" connectable="0" parent="CzH391TgKFOJ2yvW04ex-187">
          <mxGeometry x="-0.117" relative="1" as="geometry">
            <mxPoint as="offset" />
          </mxGeometry>
        </mxCell>
        <mxCell id="CzH391TgKFOJ2yvW04ex-198" value="" style="ellipse;fillColor=none;" vertex="1" parent="CzH391TgKFOJ2yvW04ex-401">
          <mxGeometry x="2060.5" y="115.5" width="30" height="30" as="geometry" />
        </mxCell>
        <mxCell id="CzH391TgKFOJ2yvW04ex-200" value="" style="shape=note2;size=25;childLayout=stackLayout;horizontalStack=0;resizeParent=1;resizeParentMax=0;resizeLast=0;collapsible=0;marginBottom=0;html=1;container=1;fillColor=#fff2cc;strokeColor=#d6b656;" vertex="1" parent="CzH391TgKFOJ2yvW04ex-401">
          <mxGeometry x="2142.5" y="65.5" width="160" height="80" as="geometry" />
        </mxCell>
        <mxCell id="CzH391TgKFOJ2yvW04ex-201" value="Évènement" style="text;html=1;strokeColor=none;fillColor=none;align=left;verticalAlign=middle;spacingLeft=4;spacingRight=4;overflow=hidden;rotatable=0;points=[[0,0.5],[1,0.5]];portConstraint=eastwest;whiteSpace=wrap;" vertex="1" parent="CzH391TgKFOJ2yvW04ex-200">
          <mxGeometry width="160" height="25" as="geometry" />
        </mxCell>
        <mxCell id="CzH391TgKFOJ2yvW04ex-202" value="Une ligne de la grille clients est cliquée" style="text;html=1;strokeColor=none;fillColor=none;align=left;verticalAlign=middle;spacingLeft=4;spacingRight=4;overflow=hidden;rotatable=0;points=[[0,0.5],[1,0.5]];portConstraint=eastwest;whiteSpace=wrap;" vertex="1" parent="CzH391TgKFOJ2yvW04ex-200">
          <mxGeometry y="25" width="160" height="55" as="geometry" />
        </mxCell>
        <mxCell id="CzH391TgKFOJ2yvW04ex-212" style="edgeStyle=orthogonalEdgeStyle;rounded=0;orthogonalLoop=1;jettySize=auto;html=1;exitX=1;exitY=0.5;exitDx=0;exitDy=0;entryX=0.5;entryY=0;entryDx=0;entryDy=0;" edge="1" parent="CzH391TgKFOJ2yvW04ex-401" source="CzH391TgKFOJ2yvW04ex-203">
          <mxGeometry relative="1" as="geometry">
            <mxPoint x="2075.5" y="565.5" as="targetPoint" />
            <Array as="points">
              <mxPoint x="2192.5" y="235.5" />
              <mxPoint x="2192.5" y="535.5" />
              <mxPoint x="2075.5" y="535.5" />
            </Array>
          </mxGeometry>
        </mxCell>
        <mxCell id="CzH391TgKFOJ2yvW04ex-213" value="Non" style="edgeLabel;html=1;align=center;verticalAlign=middle;resizable=0;points=[];" vertex="1" connectable="0" parent="CzH391TgKFOJ2yvW04ex-212">
          <mxGeometry x="-0.9232" y="-1" relative="1" as="geometry">
            <mxPoint as="offset" />
          </mxGeometry>
        </mxCell>
        <mxCell id="CzH391TgKFOJ2yvW04ex-203" value="&lt;span style=&quot;font-size: 10px;&quot;&gt;Saisie en cours&lt;/span&gt;" style="rhombus;whiteSpace=wrap;html=1;fillColor=none;aspect=fixed;" vertex="1" parent="CzH391TgKFOJ2yvW04ex-401">
          <mxGeometry x="2025.5" y="185.5" width="100" height="100" as="geometry" />
        </mxCell>
        <mxCell id="CzH391TgKFOJ2yvW04ex-204" style="edgeStyle=orthogonalEdgeStyle;rounded=0;orthogonalLoop=1;jettySize=auto;html=1;exitX=0.5;exitY=1;exitDx=0;exitDy=0;entryX=0.5;entryY=0;entryDx=0;entryDy=0;" edge="1" parent="CzH391TgKFOJ2yvW04ex-401" source="CzH391TgKFOJ2yvW04ex-198" target="CzH391TgKFOJ2yvW04ex-203">
          <mxGeometry relative="1" as="geometry" />
        </mxCell>
        <mxCell id="CzH391TgKFOJ2yvW04ex-205" value="Afficher une fenêtre de confirmation d&#39;abandont de la saisie" style="rounded=1;whiteSpace=wrap;html=1;fillColor=none;spacingLeft=0;spacingTop=0;spacing=5;" vertex="1" parent="CzH391TgKFOJ2yvW04ex-401">
          <mxGeometry x="2015.5" y="325.5" width="120" height="60" as="geometry" />
        </mxCell>
        <mxCell id="CzH391TgKFOJ2yvW04ex-206" style="edgeStyle=orthogonalEdgeStyle;rounded=0;orthogonalLoop=1;jettySize=auto;html=1;exitX=0.5;exitY=1;exitDx=0;exitDy=0;entryX=0.5;entryY=0;entryDx=0;entryDy=0;" edge="1" parent="CzH391TgKFOJ2yvW04ex-401" source="CzH391TgKFOJ2yvW04ex-203" target="CzH391TgKFOJ2yvW04ex-205">
          <mxGeometry relative="1" as="geometry" />
        </mxCell>
        <mxCell id="CzH391TgKFOJ2yvW04ex-207" value="Oui" style="edgeLabel;html=1;align=center;verticalAlign=middle;resizable=0;points=[];" vertex="1" connectable="0" parent="CzH391TgKFOJ2yvW04ex-206">
          <mxGeometry x="-0.2164" relative="1" as="geometry">
            <mxPoint as="offset" />
          </mxGeometry>
        </mxCell>
        <mxCell id="CzH391TgKFOJ2yvW04ex-211" style="edgeStyle=orthogonalEdgeStyle;rounded=0;orthogonalLoop=1;jettySize=auto;html=1;exitX=0.5;exitY=1;exitDx=0;exitDy=0;entryX=0.5;entryY=0;entryDx=0;entryDy=0;" edge="1" parent="CzH391TgKFOJ2yvW04ex-401" source="CzH391TgKFOJ2yvW04ex-208">
          <mxGeometry relative="1" as="geometry">
            <mxPoint x="2075.5" y="565.5" as="targetPoint" />
          </mxGeometry>
        </mxCell>
        <mxCell id="CzH391TgKFOJ2yvW04ex-217" value="Oui" style="edgeLabel;html=1;align=center;verticalAlign=middle;resizable=0;points=[];" vertex="1" connectable="0" parent="CzH391TgKFOJ2yvW04ex-211">
          <mxGeometry x="-0.5315" y="-1" relative="1" as="geometry">
            <mxPoint y="-2" as="offset" />
          </mxGeometry>
        </mxCell>
        <mxCell id="CzH391TgKFOJ2yvW04ex-208" value="&lt;span style=&quot;font-size: 10px;&quot;&gt;Confirmé&lt;/span&gt;" style="rhombus;whiteSpace=wrap;html=1;fillColor=none;aspect=fixed;" vertex="1" parent="CzH391TgKFOJ2yvW04ex-401">
          <mxGeometry x="2025.5" y="414.5" width="100" height="100" as="geometry" />
        </mxCell>
        <mxCell id="CzH391TgKFOJ2yvW04ex-209" style="edgeStyle=orthogonalEdgeStyle;rounded=0;orthogonalLoop=1;jettySize=auto;html=1;exitX=0.5;exitY=1;exitDx=0;exitDy=0;entryX=0.5;entryY=0;entryDx=0;entryDy=0;" edge="1" parent="CzH391TgKFOJ2yvW04ex-401" source="CzH391TgKFOJ2yvW04ex-205" target="CzH391TgKFOJ2yvW04ex-208">
          <mxGeometry relative="1" as="geometry" />
        </mxCell>
        <mxCell id="CzH391TgKFOJ2yvW04ex-214" value="" style="shape=sumEllipse;perimeter=ellipsePerimeter;html=1;backgroundOutline=1;fillColor=none;" vertex="1" parent="CzH391TgKFOJ2yvW04ex-401">
          <mxGeometry x="2060.5" y="825.5" width="30" height="30" as="geometry" />
        </mxCell>
        <mxCell id="CzH391TgKFOJ2yvW04ex-232" style="edgeStyle=orthogonalEdgeStyle;rounded=0;orthogonalLoop=1;jettySize=auto;html=1;exitX=0;exitY=0.5;exitDx=0;exitDy=0;entryX=0.5;entryY=0;entryDx=0;entryDy=0;" edge="1" parent="CzH391TgKFOJ2yvW04ex-401" source="CzH391TgKFOJ2yvW04ex-208" target="CzH391TgKFOJ2yvW04ex-214">
          <mxGeometry relative="1" as="geometry">
            <Array as="points">
              <mxPoint x="1982.5" y="464.5" />
              <mxPoint x="1982.5" y="795.5" />
              <mxPoint x="2075.5" y="795.5" />
            </Array>
          </mxGeometry>
        </mxCell>
        <mxCell id="CzH391TgKFOJ2yvW04ex-233" value="Non" style="edgeLabel;html=1;align=center;verticalAlign=middle;resizable=0;points=[];" vertex="1" connectable="0" parent="CzH391TgKFOJ2yvW04ex-232">
          <mxGeometry x="-0.9292" y="1" relative="1" as="geometry">
            <mxPoint as="offset" />
          </mxGeometry>
        </mxCell>
        <mxCell id="CzH391TgKFOJ2yvW04ex-219" value="" style="ellipse;fillColor=none;" vertex="1" parent="CzH391TgKFOJ2yvW04ex-401">
          <mxGeometry x="2462.5" y="115.5" width="30" height="30" as="geometry" />
        </mxCell>
        <mxCell id="CzH391TgKFOJ2yvW04ex-220" value="" style="shape=note2;size=25;childLayout=stackLayout;horizontalStack=0;resizeParent=1;resizeParentMax=0;resizeLast=0;collapsible=0;marginBottom=0;html=1;container=1;fillColor=#fff2cc;strokeColor=#d6b656;" vertex="1" parent="CzH391TgKFOJ2yvW04ex-401">
          <mxGeometry x="2542.5" y="65.5" width="160" height="80" as="geometry" />
        </mxCell>
        <mxCell id="CzH391TgKFOJ2yvW04ex-221" value="Évènement" style="text;html=1;strokeColor=none;fillColor=none;align=left;verticalAlign=middle;spacingLeft=4;spacingRight=4;overflow=hidden;rotatable=0;points=[[0,0.5],[1,0.5]];portConstraint=eastwest;whiteSpace=wrap;" vertex="1" parent="CzH391TgKFOJ2yvW04ex-220">
          <mxGeometry width="160" height="25" as="geometry" />
        </mxCell>
        <mxCell id="CzH391TgKFOJ2yvW04ex-222" value="Changement dans un des champs de texte ou dans la grille adresses" style="text;html=1;strokeColor=none;fillColor=none;align=left;verticalAlign=middle;spacingLeft=4;spacingRight=4;overflow=hidden;rotatable=0;points=[[0,0.5],[1,0.5]];portConstraint=eastwest;whiteSpace=wrap;" vertex="1" parent="CzH391TgKFOJ2yvW04ex-220">
          <mxGeometry y="25" width="160" height="55" as="geometry" />
        </mxCell>
        <mxCell id="CzH391TgKFOJ2yvW04ex-229" style="edgeStyle=orthogonalEdgeStyle;rounded=0;orthogonalLoop=1;jettySize=auto;html=1;exitX=0.5;exitY=1;exitDx=0;exitDy=0;entryX=0.5;entryY=0;entryDx=0;entryDy=0;" edge="1" parent="CzH391TgKFOJ2yvW04ex-401" source="CzH391TgKFOJ2yvW04ex-223" target="CzH391TgKFOJ2yvW04ex-214">
          <mxGeometry relative="1" as="geometry">
            <Array as="points">
              <mxPoint x="2262.5" y="795.5" />
              <mxPoint x="2075.5" y="795.5" />
            </Array>
          </mxGeometry>
        </mxCell>
        <mxCell id="CzH391TgKFOJ2yvW04ex-223" value="Remplacer le contenu des champs et de la grille adresses par les nouvelles données" style="rounded=1;whiteSpace=wrap;html=1;fillColor=none;spacingLeft=0;spacingTop=0;spacing=5;" vertex="1" parent="CzH391TgKFOJ2yvW04ex-401">
          <mxGeometry x="2202.5" y="570.5" width="120" height="90" as="geometry" />
        </mxCell>
        <mxCell id="CzH391TgKFOJ2yvW04ex-227" style="edgeStyle=orthogonalEdgeStyle;rounded=0;orthogonalLoop=1;jettySize=auto;html=1;exitX=1;exitY=0.5;exitDx=0;exitDy=0;entryX=0;entryY=0.5;entryDx=0;entryDy=0;" edge="1" parent="CzH391TgKFOJ2yvW04ex-401" source="CzH391TgKFOJ2yvW04ex-224" target="CzH391TgKFOJ2yvW04ex-223">
          <mxGeometry relative="1" as="geometry" />
        </mxCell>
        <mxCell id="CzH391TgKFOJ2yvW04ex-230" value="Non" style="edgeLabel;html=1;align=center;verticalAlign=middle;resizable=0;points=[];" vertex="1" connectable="0" parent="CzH391TgKFOJ2yvW04ex-227">
          <mxGeometry x="-0.5275" y="1" relative="1" as="geometry">
            <mxPoint as="offset" />
          </mxGeometry>
        </mxCell>
        <mxCell id="CzH391TgKFOJ2yvW04ex-224" value="&lt;span style=&quot;font-size: 10px;&quot;&gt;La ligne est &lt;br&gt;nouvelle&lt;/span&gt;" style="rhombus;whiteSpace=wrap;html=1;fillColor=none;aspect=fixed;" vertex="1" parent="CzH391TgKFOJ2yvW04ex-401">
          <mxGeometry x="2025.5" y="565.5" width="100" height="100" as="geometry" />
        </mxCell>
        <mxCell id="CzH391TgKFOJ2yvW04ex-228" style="edgeStyle=orthogonalEdgeStyle;rounded=0;orthogonalLoop=1;jettySize=auto;html=1;exitX=0.5;exitY=1;exitDx=0;exitDy=0;entryX=0.5;entryY=0;entryDx=0;entryDy=0;" edge="1" parent="CzH391TgKFOJ2yvW04ex-401" source="CzH391TgKFOJ2yvW04ex-225" target="CzH391TgKFOJ2yvW04ex-214">
          <mxGeometry relative="1" as="geometry" />
        </mxCell>
        <mxCell id="CzH391TgKFOJ2yvW04ex-225" value="Vider les champs" style="rounded=1;whiteSpace=wrap;html=1;fillColor=none;spacingLeft=0;spacingTop=0;spacing=5;" vertex="1" parent="CzH391TgKFOJ2yvW04ex-401">
          <mxGeometry x="2015.5" y="705.5" width="120" height="60" as="geometry" />
        </mxCell>
        <mxCell id="CzH391TgKFOJ2yvW04ex-226" style="edgeStyle=orthogonalEdgeStyle;rounded=0;orthogonalLoop=1;jettySize=auto;html=1;exitX=0.5;exitY=1;exitDx=0;exitDy=0;entryX=0.5;entryY=0;entryDx=0;entryDy=0;" edge="1" parent="CzH391TgKFOJ2yvW04ex-401" source="CzH391TgKFOJ2yvW04ex-224" target="CzH391TgKFOJ2yvW04ex-225">
          <mxGeometry relative="1" as="geometry" />
        </mxCell>
        <mxCell id="CzH391TgKFOJ2yvW04ex-231" value="Oui" style="edgeLabel;html=1;align=center;verticalAlign=middle;resizable=0;points=[];" vertex="1" connectable="0" parent="CzH391TgKFOJ2yvW04ex-226">
          <mxGeometry x="-0.4789" y="1" relative="1" as="geometry">
            <mxPoint as="offset" />
          </mxGeometry>
        </mxCell>
        <mxCell id="CzH391TgKFOJ2yvW04ex-235" value="&lt;span style=&quot;font-size: 10px;&quot;&gt;Le contenu &lt;br&gt;d&#39;un champ de texte a changé&lt;/span&gt;" style="rhombus;whiteSpace=wrap;html=1;fillColor=none;aspect=fixed;" vertex="1" parent="CzH391TgKFOJ2yvW04ex-401">
          <mxGeometry x="2427.5" y="185.5" width="100" height="100" as="geometry" />
        </mxCell>
        <mxCell id="CzH391TgKFOJ2yvW04ex-236" style="edgeStyle=orthogonalEdgeStyle;rounded=0;orthogonalLoop=1;jettySize=auto;html=1;exitX=0.5;exitY=1;exitDx=0;exitDy=0;entryX=0.5;entryY=0;entryDx=0;entryDy=0;" edge="1" parent="CzH391TgKFOJ2yvW04ex-401" source="CzH391TgKFOJ2yvW04ex-219" target="CzH391TgKFOJ2yvW04ex-235">
          <mxGeometry relative="1" as="geometry" />
        </mxCell>
        <mxCell id="CzH391TgKFOJ2yvW04ex-237" value="&lt;span style=&quot;font-size: 10px;&quot;&gt;Toutes les &lt;br&gt;valeurs sont &lt;br&gt;justes&lt;/span&gt;" style="rhombus;whiteSpace=wrap;html=1;fillColor=none;aspect=fixed;" vertex="1" parent="CzH391TgKFOJ2yvW04ex-401">
          <mxGeometry x="2592.5" y="185.5" width="100" height="100" as="geometry" />
        </mxCell>
        <mxCell id="CzH391TgKFOJ2yvW04ex-238" style="edgeStyle=orthogonalEdgeStyle;rounded=0;orthogonalLoop=1;jettySize=auto;html=1;exitX=1;exitY=0.5;exitDx=0;exitDy=0;entryX=0;entryY=0.5;entryDx=0;entryDy=0;" edge="1" parent="CzH391TgKFOJ2yvW04ex-401" source="CzH391TgKFOJ2yvW04ex-235" target="CzH391TgKFOJ2yvW04ex-237">
          <mxGeometry relative="1" as="geometry" />
        </mxCell>
        <mxCell id="CzH391TgKFOJ2yvW04ex-239" value="Oui" style="edgeLabel;html=1;align=center;verticalAlign=middle;resizable=0;points=[];" vertex="1" connectable="0" parent="CzH391TgKFOJ2yvW04ex-238">
          <mxGeometry x="-0.573" y="-4" relative="1" as="geometry">
            <mxPoint x="1" y="-5" as="offset" />
          </mxGeometry>
        </mxCell>
        <mxCell id="CzH391TgKFOJ2yvW04ex-240" value="&lt;span style=&quot;font-size: 10px;&quot;&gt;Le contenu &lt;br&gt;de la grille adresses &lt;br&gt;à changé&lt;/span&gt;" style="rhombus;whiteSpace=wrap;html=1;fillColor=none;aspect=fixed;" vertex="1" parent="CzH391TgKFOJ2yvW04ex-401">
          <mxGeometry x="2427.5" y="325.5" width="100" height="100" as="geometry" />
        </mxCell>
        <mxCell id="CzH391TgKFOJ2yvW04ex-244" style="edgeStyle=orthogonalEdgeStyle;rounded=0;orthogonalLoop=1;jettySize=auto;html=1;exitX=0.5;exitY=1;exitDx=0;exitDy=0;entryX=0.5;entryY=0;entryDx=0;entryDy=0;" edge="1" parent="CzH391TgKFOJ2yvW04ex-401" source="CzH391TgKFOJ2yvW04ex-235" target="CzH391TgKFOJ2yvW04ex-240">
          <mxGeometry relative="1" as="geometry" />
        </mxCell>
        <mxCell id="CzH391TgKFOJ2yvW04ex-245" value="Non" style="edgeLabel;html=1;align=center;verticalAlign=middle;resizable=0;points=[];" vertex="1" connectable="0" parent="CzH391TgKFOJ2yvW04ex-244">
          <mxGeometry x="-0.3211" relative="1" as="geometry">
            <mxPoint as="offset" />
          </mxGeometry>
        </mxCell>
        <mxCell id="CzH391TgKFOJ2yvW04ex-278" style="edgeStyle=orthogonalEdgeStyle;rounded=0;orthogonalLoop=1;jettySize=auto;html=1;exitX=0.5;exitY=1;exitDx=0;exitDy=0;" edge="1" parent="CzH391TgKFOJ2yvW04ex-401" source="CzH391TgKFOJ2yvW04ex-241">
          <mxGeometry relative="1" as="geometry">
            <mxPoint x="2642.0789473684213" y="635.5" as="targetPoint" />
          </mxGeometry>
        </mxCell>
        <mxCell id="CzH391TgKFOJ2yvW04ex-279" value="Non" style="edgeLabel;html=1;align=center;verticalAlign=middle;resizable=0;points=[];" vertex="1" connectable="0" parent="CzH391TgKFOJ2yvW04ex-278">
          <mxGeometry x="-0.8641" relative="1" as="geometry">
            <mxPoint as="offset" />
          </mxGeometry>
        </mxCell>
        <mxCell id="CzH391TgKFOJ2yvW04ex-241" value="&lt;span style=&quot;font-size: 10px;&quot;&gt;Le contenu &lt;br&gt;de la grille adresses &lt;br&gt;à changé&lt;/span&gt;" style="rhombus;whiteSpace=wrap;html=1;fillColor=none;aspect=fixed;" vertex="1" parent="CzH391TgKFOJ2yvW04ex-401">
          <mxGeometry x="2592.5" y="325.5" width="100" height="100" as="geometry" />
        </mxCell>
        <mxCell id="CzH391TgKFOJ2yvW04ex-242" style="edgeStyle=orthogonalEdgeStyle;rounded=0;orthogonalLoop=1;jettySize=auto;html=1;exitX=0.5;exitY=1;exitDx=0;exitDy=0;entryX=0.5;entryY=0;entryDx=0;entryDy=0;" edge="1" parent="CzH391TgKFOJ2yvW04ex-401" source="CzH391TgKFOJ2yvW04ex-237" target="CzH391TgKFOJ2yvW04ex-241">
          <mxGeometry relative="1" as="geometry" />
        </mxCell>
        <mxCell id="CzH391TgKFOJ2yvW04ex-246" value="Oui" style="edgeLabel;html=1;align=center;verticalAlign=middle;resizable=0;points=[];" vertex="1" connectable="0" parent="CzH391TgKFOJ2yvW04ex-242">
          <mxGeometry x="-0.4263" y="-1" relative="1" as="geometry">
            <mxPoint as="offset" />
          </mxGeometry>
        </mxCell>
        <mxCell id="CzH391TgKFOJ2yvW04ex-253" value="&lt;font style=&quot;font-size: 10px;&quot;&gt;Le contenu&lt;br style=&quot;border-color: var(--border-color);&quot;&gt;de la grille adresses&lt;br style=&quot;border-color: var(--border-color);&quot;&gt;est valide&lt;/font&gt;" style="rhombus;whiteSpace=wrap;html=1;fillColor=none;aspect=fixed;" vertex="1" parent="CzH391TgKFOJ2yvW04ex-401">
          <mxGeometry x="2512.5" y="495.5" width="100" height="100" as="geometry" />
        </mxCell>
        <mxCell id="CzH391TgKFOJ2yvW04ex-249" style="edgeStyle=orthogonalEdgeStyle;rounded=0;orthogonalLoop=1;jettySize=auto;html=1;exitX=1;exitY=0.5;exitDx=0;exitDy=0;entryX=0.5;entryY=0;entryDx=0;entryDy=0;" edge="1" parent="CzH391TgKFOJ2yvW04ex-401" source="CzH391TgKFOJ2yvW04ex-240" target="CzH391TgKFOJ2yvW04ex-253">
          <mxGeometry relative="1" as="geometry">
            <mxPoint x="2642.5" y="465.5" as="targetPoint" />
            <Array as="points">
              <mxPoint x="2562.5" y="375.5" />
            </Array>
          </mxGeometry>
        </mxCell>
        <mxCell id="CzH391TgKFOJ2yvW04ex-251" style="edgeStyle=orthogonalEdgeStyle;rounded=0;orthogonalLoop=1;jettySize=auto;html=1;exitX=0;exitY=0.5;exitDx=0;exitDy=0;entryX=0.5;entryY=0;entryDx=0;entryDy=0;" edge="1" parent="CzH391TgKFOJ2yvW04ex-401" source="CzH391TgKFOJ2yvW04ex-241" target="CzH391TgKFOJ2yvW04ex-253">
          <mxGeometry relative="1" as="geometry">
            <mxPoint x="2642.0789473684213" y="465.5" as="targetPoint" />
            <Array as="points">
              <mxPoint x="2562.5" y="375.5" />
            </Array>
          </mxGeometry>
        </mxCell>
        <mxCell id="CzH391TgKFOJ2yvW04ex-255" value="Oui" style="edgeLabel;html=1;align=center;verticalAlign=middle;resizable=0;points=[];" vertex="1" connectable="0" parent="CzH391TgKFOJ2yvW04ex-251">
          <mxGeometry x="-0.0549" y="-1" relative="1" as="geometry">
            <mxPoint as="offset" />
          </mxGeometry>
        </mxCell>
        <mxCell id="CzH391TgKFOJ2yvW04ex-257" value="" style="shape=sumEllipse;perimeter=ellipsePerimeter;html=1;backgroundOutline=1;fillColor=none;" vertex="1" parent="CzH391TgKFOJ2yvW04ex-401">
          <mxGeometry x="2462.5" y="765.5" width="30" height="30" as="geometry" />
        </mxCell>
        <mxCell id="CzH391TgKFOJ2yvW04ex-276" style="edgeStyle=orthogonalEdgeStyle;rounded=0;orthogonalLoop=1;jettySize=auto;html=1;exitX=0.5;exitY=1;exitDx=0;exitDy=0;entryX=0.5;entryY=0;entryDx=0;entryDy=0;" edge="1" parent="CzH391TgKFOJ2yvW04ex-401" source="CzH391TgKFOJ2yvW04ex-271" target="CzH391TgKFOJ2yvW04ex-257">
          <mxGeometry relative="1" as="geometry" />
        </mxCell>
        <mxCell id="CzH391TgKFOJ2yvW04ex-271" value="Activer le bouton Valider" style="rounded=1;whiteSpace=wrap;html=1;fillColor=none;spacingLeft=0;spacingTop=0;spacing=5;" vertex="1" parent="CzH391TgKFOJ2yvW04ex-401">
          <mxGeometry x="2582.5" y="635.5" width="120" height="60" as="geometry" />
        </mxCell>
        <mxCell id="CzH391TgKFOJ2yvW04ex-277" style="edgeStyle=orthogonalEdgeStyle;rounded=0;orthogonalLoop=1;jettySize=auto;html=1;exitX=1;exitY=0.5;exitDx=0;exitDy=0;entryX=0.5;entryY=0;entryDx=0;entryDy=0;" edge="1" parent="CzH391TgKFOJ2yvW04ex-401" source="CzH391TgKFOJ2yvW04ex-253" target="CzH391TgKFOJ2yvW04ex-271">
          <mxGeometry relative="1" as="geometry" />
        </mxCell>
        <mxCell id="CzH391TgKFOJ2yvW04ex-281" value="Oui" style="edgeLabel;html=1;align=center;verticalAlign=middle;resizable=0;points=[];" vertex="1" connectable="0" parent="CzH391TgKFOJ2yvW04ex-277">
          <mxGeometry x="-0.6769" y="-3" relative="1" as="geometry">
            <mxPoint x="-2" y="-3" as="offset" />
          </mxGeometry>
        </mxCell>
        <mxCell id="CzH391TgKFOJ2yvW04ex-273" value="" style="edgeStyle=orthogonalEdgeStyle;rounded=0;orthogonalLoop=1;jettySize=auto;html=1;exitX=0;exitY=0.5;exitDx=0;exitDy=0;entryX=0.5;entryY=0;entryDx=0;entryDy=0;" edge="1" parent="CzH391TgKFOJ2yvW04ex-401" source="CzH391TgKFOJ2yvW04ex-253" target="CzH391TgKFOJ2yvW04ex-272">
          <mxGeometry relative="1" as="geometry">
            <mxPoint x="2507.5" y="545.5" as="sourcePoint" />
            <mxPoint x="2477.5" y="765.5" as="targetPoint" />
          </mxGeometry>
        </mxCell>
        <mxCell id="CzH391TgKFOJ2yvW04ex-282" value="Non" style="edgeLabel;html=1;align=center;verticalAlign=middle;resizable=0;points=[];" vertex="1" connectable="0" parent="CzH391TgKFOJ2yvW04ex-273">
          <mxGeometry x="-0.7575" y="2" relative="1" as="geometry">
            <mxPoint x="-5" y="-2" as="offset" />
          </mxGeometry>
        </mxCell>
        <mxCell id="CzH391TgKFOJ2yvW04ex-275" style="edgeStyle=orthogonalEdgeStyle;rounded=0;orthogonalLoop=1;jettySize=auto;html=1;exitX=0.5;exitY=1;exitDx=0;exitDy=0;entryX=0.5;entryY=0;entryDx=0;entryDy=0;" edge="1" parent="CzH391TgKFOJ2yvW04ex-401" source="CzH391TgKFOJ2yvW04ex-272" target="CzH391TgKFOJ2yvW04ex-257">
          <mxGeometry relative="1" as="geometry" />
        </mxCell>
        <mxCell id="CzH391TgKFOJ2yvW04ex-272" value="Désactiver le bouton Valider" style="rounded=1;whiteSpace=wrap;html=1;fillColor=none;spacingLeft=0;spacingTop=0;spacing=5;" vertex="1" parent="CzH391TgKFOJ2yvW04ex-401">
          <mxGeometry x="2417.5" y="635.5" width="120" height="60" as="geometry" />
        </mxCell>
        <mxCell id="CzH391TgKFOJ2yvW04ex-274" style="edgeStyle=orthogonalEdgeStyle;rounded=0;orthogonalLoop=1;jettySize=auto;html=1;exitX=0.5;exitY=1;exitDx=0;exitDy=0;entryX=0.5;entryY=0;entryDx=0;entryDy=0;" edge="1" parent="CzH391TgKFOJ2yvW04ex-401" source="CzH391TgKFOJ2yvW04ex-240" target="CzH391TgKFOJ2yvW04ex-272">
          <mxGeometry relative="1" as="geometry" />
        </mxCell>
        <mxCell id="CzH391TgKFOJ2yvW04ex-280" value="Non" style="edgeLabel;html=1;align=center;verticalAlign=middle;resizable=0;points=[];" vertex="1" connectable="0" parent="CzH391TgKFOJ2yvW04ex-274">
          <mxGeometry x="-0.854" relative="1" as="geometry">
            <mxPoint as="offset" />
          </mxGeometry>
        </mxCell>
        <mxCell id="CzH391TgKFOJ2yvW04ex-283" value="" style="ellipse;fillColor=none;" vertex="1" parent="CzH391TgKFOJ2yvW04ex-401">
          <mxGeometry x="2822.5" y="115.5" width="30" height="30" as="geometry" />
        </mxCell>
        <mxCell id="CzH391TgKFOJ2yvW04ex-284" value="" style="shape=note2;size=25;childLayout=stackLayout;horizontalStack=0;resizeParent=1;resizeParentMax=0;resizeLast=0;collapsible=0;marginBottom=0;html=1;container=1;fillColor=#fff2cc;strokeColor=#d6b656;" vertex="1" parent="CzH391TgKFOJ2yvW04ex-401">
          <mxGeometry x="2902.5" y="65.5" width="160" height="80" as="geometry" />
        </mxCell>
        <mxCell id="CzH391TgKFOJ2yvW04ex-285" value="Évènement" style="text;html=1;strokeColor=none;fillColor=none;align=left;verticalAlign=middle;spacingLeft=4;spacingRight=4;overflow=hidden;rotatable=0;points=[[0,0.5],[1,0.5]];portConstraint=eastwest;whiteSpace=wrap;" vertex="1" parent="CzH391TgKFOJ2yvW04ex-284">
          <mxGeometry width="160" height="25" as="geometry" />
        </mxCell>
        <mxCell id="CzH391TgKFOJ2yvW04ex-286" value="Clique sur le bouton Valider" style="text;html=1;strokeColor=none;fillColor=none;align=left;verticalAlign=middle;spacingLeft=4;spacingRight=4;overflow=hidden;rotatable=0;points=[[0,0.5],[1,0.5]];portConstraint=eastwest;whiteSpace=wrap;" vertex="1" parent="CzH391TgKFOJ2yvW04ex-284">
          <mxGeometry y="25" width="160" height="55" as="geometry" />
        </mxCell>
        <mxCell id="CzH391TgKFOJ2yvW04ex-296" value="&lt;span style=&quot;font-size: 10px;&quot;&gt;Le contenu &lt;br&gt;d&#39;un champ de texte a changé&lt;/span&gt;" style="rhombus;whiteSpace=wrap;html=1;fillColor=none;aspect=fixed;" vertex="1" parent="CzH391TgKFOJ2yvW04ex-401">
          <mxGeometry x="2787.5" y="185.5" width="100" height="100" as="geometry" />
        </mxCell>
        <mxCell id="CzH391TgKFOJ2yvW04ex-314" style="edgeStyle=orthogonalEdgeStyle;rounded=0;orthogonalLoop=1;jettySize=auto;html=1;exitX=0.5;exitY=1;exitDx=0;exitDy=0;entryX=0.5;entryY=0;entryDx=0;entryDy=0;" edge="1" parent="CzH391TgKFOJ2yvW04ex-401" source="CzH391TgKFOJ2yvW04ex-283" target="CzH391TgKFOJ2yvW04ex-296">
          <mxGeometry relative="1" as="geometry" />
        </mxCell>
        <mxCell id="CzH391TgKFOJ2yvW04ex-299" value="&lt;span style=&quot;font-size: 10px;&quot;&gt;Toutes les &lt;br&gt;valeurs sont &lt;br&gt;justes&lt;/span&gt;" style="rhombus;whiteSpace=wrap;html=1;fillColor=none;aspect=fixed;" vertex="1" parent="CzH391TgKFOJ2yvW04ex-401">
          <mxGeometry x="2952.5" y="185.5" width="100" height="100" as="geometry" />
        </mxCell>
        <mxCell id="CzH391TgKFOJ2yvW04ex-292" style="edgeStyle=orthogonalEdgeStyle;rounded=0;orthogonalLoop=1;jettySize=auto;html=1;exitX=1;exitY=0.5;exitDx=0;exitDy=0;entryX=0;entryY=0.5;entryDx=0;entryDy=0;" edge="1" parent="CzH391TgKFOJ2yvW04ex-401" source="CzH391TgKFOJ2yvW04ex-296" target="CzH391TgKFOJ2yvW04ex-299">
          <mxGeometry relative="1" as="geometry" />
        </mxCell>
        <mxCell id="CzH391TgKFOJ2yvW04ex-293" value="Oui" style="edgeLabel;html=1;align=center;verticalAlign=middle;resizable=0;points=[];" vertex="1" connectable="0" parent="CzH391TgKFOJ2yvW04ex-292">
          <mxGeometry x="-0.573" y="-4" relative="1" as="geometry">
            <mxPoint x="1" y="-5" as="offset" />
          </mxGeometry>
        </mxCell>
        <mxCell id="CzH391TgKFOJ2yvW04ex-303" value="&lt;span style=&quot;font-size: 10px;&quot;&gt;Le contenu &lt;br&gt;de la grille adresses &lt;br&gt;à changé&lt;/span&gt;" style="rhombus;whiteSpace=wrap;html=1;fillColor=none;aspect=fixed;" vertex="1" parent="CzH391TgKFOJ2yvW04ex-401">
          <mxGeometry x="2787.5" y="325.5" width="100" height="100" as="geometry" />
        </mxCell>
        <mxCell id="CzH391TgKFOJ2yvW04ex-294" style="edgeStyle=orthogonalEdgeStyle;rounded=0;orthogonalLoop=1;jettySize=auto;html=1;exitX=0.5;exitY=1;exitDx=0;exitDy=0;entryX=0.5;entryY=0;entryDx=0;entryDy=0;" edge="1" parent="CzH391TgKFOJ2yvW04ex-401" source="CzH391TgKFOJ2yvW04ex-296" target="CzH391TgKFOJ2yvW04ex-303">
          <mxGeometry relative="1" as="geometry" />
        </mxCell>
        <mxCell id="CzH391TgKFOJ2yvW04ex-295" value="Non" style="edgeLabel;html=1;align=center;verticalAlign=middle;resizable=0;points=[];" vertex="1" connectable="0" parent="CzH391TgKFOJ2yvW04ex-294">
          <mxGeometry x="-0.3211" relative="1" as="geometry">
            <mxPoint as="offset" />
          </mxGeometry>
        </mxCell>
        <mxCell id="CzH391TgKFOJ2yvW04ex-306" style="edgeStyle=orthogonalEdgeStyle;rounded=0;orthogonalLoop=1;jettySize=auto;html=1;exitX=0.5;exitY=1;exitDx=0;exitDy=0;" edge="1" parent="CzH391TgKFOJ2yvW04ex-401" source="CzH391TgKFOJ2yvW04ex-308">
          <mxGeometry relative="1" as="geometry">
            <mxPoint x="3002.0789473684213" y="635.5" as="targetPoint" />
          </mxGeometry>
        </mxCell>
        <mxCell id="CzH391TgKFOJ2yvW04ex-307" value="Non" style="edgeLabel;html=1;align=center;verticalAlign=middle;resizable=0;points=[];" vertex="1" connectable="0" parent="CzH391TgKFOJ2yvW04ex-306">
          <mxGeometry x="-0.8641" relative="1" as="geometry">
            <mxPoint as="offset" />
          </mxGeometry>
        </mxCell>
        <mxCell id="CzH391TgKFOJ2yvW04ex-308" value="&lt;span style=&quot;font-size: 10px;&quot;&gt;Le contenu &lt;br&gt;de la grille adresses &lt;br&gt;à changé&lt;/span&gt;" style="rhombus;whiteSpace=wrap;html=1;fillColor=none;aspect=fixed;" vertex="1" parent="CzH391TgKFOJ2yvW04ex-401">
          <mxGeometry x="2952.5" y="325.5" width="100" height="100" as="geometry" />
        </mxCell>
        <mxCell id="CzH391TgKFOJ2yvW04ex-297" style="edgeStyle=orthogonalEdgeStyle;rounded=0;orthogonalLoop=1;jettySize=auto;html=1;exitX=0.5;exitY=1;exitDx=0;exitDy=0;entryX=0.5;entryY=0;entryDx=0;entryDy=0;" edge="1" parent="CzH391TgKFOJ2yvW04ex-401" source="CzH391TgKFOJ2yvW04ex-299" target="CzH391TgKFOJ2yvW04ex-308">
          <mxGeometry relative="1" as="geometry" />
        </mxCell>
        <mxCell id="CzH391TgKFOJ2yvW04ex-298" value="Oui" style="edgeLabel;html=1;align=center;verticalAlign=middle;resizable=0;points=[];" vertex="1" connectable="0" parent="CzH391TgKFOJ2yvW04ex-297">
          <mxGeometry x="-0.4263" y="-1" relative="1" as="geometry">
            <mxPoint as="offset" />
          </mxGeometry>
        </mxCell>
        <mxCell id="CzH391TgKFOJ2yvW04ex-309" style="edgeStyle=orthogonalEdgeStyle;rounded=0;orthogonalLoop=1;jettySize=auto;html=1;exitX=1;exitY=0.5;exitDx=0;exitDy=0;entryX=0.5;entryY=0;entryDx=0;entryDy=0;" edge="1" parent="CzH391TgKFOJ2yvW04ex-401" source="CzH391TgKFOJ2yvW04ex-311">
          <mxGeometry relative="1" as="geometry">
            <mxPoint x="3002.5" y="635.5" as="targetPoint" />
          </mxGeometry>
        </mxCell>
        <mxCell id="CzH391TgKFOJ2yvW04ex-310" value="Oui" style="edgeLabel;html=1;align=center;verticalAlign=middle;resizable=0;points=[];" vertex="1" connectable="0" parent="CzH391TgKFOJ2yvW04ex-309">
          <mxGeometry x="-0.6769" y="-3" relative="1" as="geometry">
            <mxPoint x="-2" y="-3" as="offset" />
          </mxGeometry>
        </mxCell>
        <mxCell id="CzH391TgKFOJ2yvW04ex-311" value="&lt;font style=&quot;font-size: 10px;&quot;&gt;Le contenu&lt;br style=&quot;border-color: var(--border-color);&quot;&gt;de la grille adresses&lt;br style=&quot;border-color: var(--border-color);&quot;&gt;est valide&lt;/font&gt;" style="rhombus;whiteSpace=wrap;html=1;fillColor=none;aspect=fixed;" vertex="1" parent="CzH391TgKFOJ2yvW04ex-401">
          <mxGeometry x="2872.5" y="495.5" width="100" height="100" as="geometry" />
        </mxCell>
        <mxCell id="CzH391TgKFOJ2yvW04ex-300" style="edgeStyle=orthogonalEdgeStyle;rounded=0;orthogonalLoop=1;jettySize=auto;html=1;exitX=1;exitY=0.5;exitDx=0;exitDy=0;entryX=0.5;entryY=0;entryDx=0;entryDy=0;" edge="1" parent="CzH391TgKFOJ2yvW04ex-401" source="CzH391TgKFOJ2yvW04ex-303" target="CzH391TgKFOJ2yvW04ex-311">
          <mxGeometry relative="1" as="geometry">
            <mxPoint x="3002.5" y="465.5" as="targetPoint" />
            <Array as="points">
              <mxPoint x="2922.5" y="375.5" />
            </Array>
          </mxGeometry>
        </mxCell>
        <mxCell id="CzH391TgKFOJ2yvW04ex-304" style="edgeStyle=orthogonalEdgeStyle;rounded=0;orthogonalLoop=1;jettySize=auto;html=1;exitX=0;exitY=0.5;exitDx=0;exitDy=0;entryX=0.5;entryY=0;entryDx=0;entryDy=0;" edge="1" parent="CzH391TgKFOJ2yvW04ex-401" source="CzH391TgKFOJ2yvW04ex-308" target="CzH391TgKFOJ2yvW04ex-311">
          <mxGeometry relative="1" as="geometry">
            <mxPoint x="3002.0789473684213" y="465.5" as="targetPoint" />
            <Array as="points">
              <mxPoint x="2922.5" y="375.5" />
            </Array>
          </mxGeometry>
        </mxCell>
        <mxCell id="CzH391TgKFOJ2yvW04ex-305" value="Oui" style="edgeLabel;html=1;align=center;verticalAlign=middle;resizable=0;points=[];" vertex="1" connectable="0" parent="CzH391TgKFOJ2yvW04ex-304">
          <mxGeometry x="-0.0549" y="-1" relative="1" as="geometry">
            <mxPoint as="offset" />
          </mxGeometry>
        </mxCell>
        <mxCell id="CzH391TgKFOJ2yvW04ex-312" value="" style="edgeStyle=orthogonalEdgeStyle;rounded=0;orthogonalLoop=1;jettySize=auto;html=1;exitX=0;exitY=0.5;exitDx=0;exitDy=0;entryX=0.5;entryY=0;entryDx=0;entryDy=0;" edge="1" parent="CzH391TgKFOJ2yvW04ex-401" source="CzH391TgKFOJ2yvW04ex-311" target="CzH391TgKFOJ2yvW04ex-315">
          <mxGeometry relative="1" as="geometry">
            <mxPoint x="2867.5" y="545.5" as="sourcePoint" />
            <mxPoint x="2837.5" y="635.5" as="targetPoint" />
          </mxGeometry>
        </mxCell>
        <mxCell id="CzH391TgKFOJ2yvW04ex-313" value="Non" style="edgeLabel;html=1;align=center;verticalAlign=middle;resizable=0;points=[];" vertex="1" connectable="0" parent="CzH391TgKFOJ2yvW04ex-312">
          <mxGeometry x="-0.7575" y="2" relative="1" as="geometry">
            <mxPoint x="13" y="-62" as="offset" />
          </mxGeometry>
        </mxCell>
        <mxCell id="CzH391TgKFOJ2yvW04ex-315" value="" style="shape=sumEllipse;perimeter=ellipsePerimeter;html=1;backgroundOutline=1;fillColor=none;" vertex="1" parent="CzH391TgKFOJ2yvW04ex-401">
          <mxGeometry x="2822.5" y="1305.5" width="30" height="30" as="geometry" />
        </mxCell>
        <mxCell id="CzH391TgKFOJ2yvW04ex-301" style="edgeStyle=orthogonalEdgeStyle;rounded=0;orthogonalLoop=1;jettySize=auto;html=1;exitX=0.5;exitY=1;exitDx=0;exitDy=0;entryX=0.5;entryY=0;entryDx=0;entryDy=0;" edge="1" parent="CzH391TgKFOJ2yvW04ex-401" source="CzH391TgKFOJ2yvW04ex-303" target="CzH391TgKFOJ2yvW04ex-315">
          <mxGeometry relative="1" as="geometry">
            <mxPoint x="2837.5" y="635.5" as="targetPoint" />
          </mxGeometry>
        </mxCell>
        <mxCell id="CzH391TgKFOJ2yvW04ex-302" value="Non" style="edgeLabel;html=1;align=center;verticalAlign=middle;resizable=0;points=[];" vertex="1" connectable="0" parent="CzH391TgKFOJ2yvW04ex-301">
          <mxGeometry x="-0.854" relative="1" as="geometry">
            <mxPoint y="-54" as="offset" />
          </mxGeometry>
        </mxCell>
        <mxCell id="CzH391TgKFOJ2yvW04ex-316" value="&lt;span style=&quot;font-size: 10px;&quot;&gt;Nouveau client&lt;/span&gt;" style="rhombus;whiteSpace=wrap;html=1;fillColor=none;aspect=fixed;" vertex="1" parent="CzH391TgKFOJ2yvW04ex-401">
          <mxGeometry x="2952.5" y="635.5" width="100" height="100" as="geometry" />
        </mxCell>
        <mxCell id="CzH391TgKFOJ2yvW04ex-317" value="Mettre à jour les données dans la BDD" style="rounded=1;whiteSpace=wrap;html=1;fillColor=none;spacingLeft=0;spacingTop=0;spacing=5;" vertex="1" parent="CzH391TgKFOJ2yvW04ex-401">
          <mxGeometry x="2942.5" y="765.5" width="120" height="60" as="geometry" />
        </mxCell>
        <mxCell id="CzH391TgKFOJ2yvW04ex-318" style="edgeStyle=orthogonalEdgeStyle;rounded=0;orthogonalLoop=1;jettySize=auto;html=1;exitX=0.5;exitY=1;exitDx=0;exitDy=0;entryX=0.5;entryY=0;entryDx=0;entryDy=0;" edge="1" parent="CzH391TgKFOJ2yvW04ex-401" source="CzH391TgKFOJ2yvW04ex-316" target="CzH391TgKFOJ2yvW04ex-317">
          <mxGeometry relative="1" as="geometry" />
        </mxCell>
        <mxCell id="CzH391TgKFOJ2yvW04ex-319" value="Non" style="edgeLabel;html=1;align=center;verticalAlign=middle;resizable=0;points=[];" vertex="1" connectable="0" parent="CzH391TgKFOJ2yvW04ex-318">
          <mxGeometry x="-0.5977" y="2" relative="1" as="geometry">
            <mxPoint x="-3" y="4" as="offset" />
          </mxGeometry>
        </mxCell>
        <mxCell id="CzH391TgKFOJ2yvW04ex-320" value="Ajouter le client dans la BDD" style="rounded=1;whiteSpace=wrap;html=1;fillColor=none;spacingLeft=0;spacingTop=0;spacing=5;" vertex="1" parent="CzH391TgKFOJ2yvW04ex-401">
          <mxGeometry x="3102.5" y="765.5" width="120" height="60" as="geometry" />
        </mxCell>
        <mxCell id="CzH391TgKFOJ2yvW04ex-321" style="edgeStyle=orthogonalEdgeStyle;rounded=0;orthogonalLoop=1;jettySize=auto;html=1;exitX=1;exitY=0.5;exitDx=0;exitDy=0;entryX=0.5;entryY=0;entryDx=0;entryDy=0;" edge="1" parent="CzH391TgKFOJ2yvW04ex-401" source="CzH391TgKFOJ2yvW04ex-316" target="CzH391TgKFOJ2yvW04ex-320">
          <mxGeometry relative="1" as="geometry" />
        </mxCell>
        <mxCell id="CzH391TgKFOJ2yvW04ex-397" value="Oui" style="edgeLabel;html=1;align=center;verticalAlign=middle;resizable=0;points=[];" vertex="1" connectable="0" parent="CzH391TgKFOJ2yvW04ex-321">
          <mxGeometry x="-0.6632" y="-7" relative="1" as="geometry">
            <mxPoint x="-12" y="-7" as="offset" />
          </mxGeometry>
        </mxCell>
        <mxCell id="CzH391TgKFOJ2yvW04ex-326" value="&amp;lt;&amp;lt;iterative&amp;gt;&amp;gt;" style="dashed=1;rounded=1;absoluteArcSize=1;arcSize=20;verticalAlign=bottom;align=left;whiteSpace=wrap;fillColor=none;labelPosition=center;verticalLabelPosition=top;spacingTop=0;html=1;" vertex="1" parent="CzH391TgKFOJ2yvW04ex-401">
          <mxGeometry x="2902.5" y="875.5" width="360" height="270" as="geometry" />
        </mxCell>
        <mxCell id="CzH391TgKFOJ2yvW04ex-353" style="edgeStyle=orthogonalEdgeStyle;rounded=0;orthogonalLoop=1;jettySize=auto;html=1;exitX=0.5;exitY=1;exitDx=0;exitDy=0;entryX=0.5;entryY=0;entryDx=0;entryDy=0;" edge="1" parent="CzH391TgKFOJ2yvW04ex-326" source="CzH391TgKFOJ2yvW04ex-327">
          <mxGeometry relative="1" as="geometry">
            <mxPoint x="180" y="23.142857142857142" as="targetPoint" />
          </mxGeometry>
        </mxCell>
        <mxCell id="CzH391TgKFOJ2yvW04ex-327" value="" style="group;resizeWidth=0;resizeHeight=0;html=1;" vertex="1" parent="CzH391TgKFOJ2yvW04ex-326">
          <mxGeometry width="80" height="20" relative="1" as="geometry">
            <mxPoint x="140" y="-10" as="offset" />
          </mxGeometry>
        </mxCell>
        <mxCell id="CzH391TgKFOJ2yvW04ex-328" value="" style="resizeWidth=0;resizeHeight=0;points=[[0,0],[0.5,0],[1,0]];html=1;whiteSpace=wrap;" vertex="1" parent="CzH391TgKFOJ2yvW04ex-327">
          <mxGeometry width="20" height="20" relative="1" as="geometry">
            <mxPoint as="offset" />
          </mxGeometry>
        </mxCell>
        <mxCell id="CzH391TgKFOJ2yvW04ex-329" value="" style="resizeWidth=0;resizeHeight=0;points=[[0,0],[0.5,0],[1,0]];html=1;whiteSpace=wrap;" vertex="1" parent="CzH391TgKFOJ2yvW04ex-327">
          <mxGeometry width="20" height="20" relative="1" as="geometry">
            <mxPoint x="20" as="offset" />
          </mxGeometry>
        </mxCell>
        <mxCell id="CzH391TgKFOJ2yvW04ex-330" value="" style="resizeWidth=0;resizeHeight=0;points=[[0,0],[0.5,0],[1,0]];html=1;whiteSpace=wrap;" vertex="1" parent="CzH391TgKFOJ2yvW04ex-327">
          <mxGeometry width="20" height="20" relative="1" as="geometry">
            <mxPoint x="40" as="offset" />
          </mxGeometry>
        </mxCell>
        <mxCell id="CzH391TgKFOJ2yvW04ex-331" value="" style="resizeWidth=0;resizeHeight=0;points=[[0,0],[0.5,0],[1,0]];html=1;whiteSpace=wrap;" vertex="1" parent="CzH391TgKFOJ2yvW04ex-327">
          <mxGeometry width="20" height="20" relative="1" as="geometry">
            <mxPoint x="60" as="offset" />
          </mxGeometry>
        </mxCell>
        <mxCell id="CzH391TgKFOJ2yvW04ex-332" value="" style="group;resizeWidth=0;resizeHeight=0;html=1;" vertex="1" parent="CzH391TgKFOJ2yvW04ex-326">
          <mxGeometry y="1" width="80" height="20" relative="1" as="geometry">
            <mxPoint x="140" y="-10" as="offset" />
          </mxGeometry>
        </mxCell>
        <mxCell id="CzH391TgKFOJ2yvW04ex-333" value="" style="resizeWidth=0;resizeHeight=0;points=[[0,1],[0.5,1],[1,1]];html=1;whiteSpace=wrap;" vertex="1" parent="CzH391TgKFOJ2yvW04ex-332">
          <mxGeometry width="20" height="20" relative="1" as="geometry">
            <mxPoint as="offset" />
          </mxGeometry>
        </mxCell>
        <mxCell id="CzH391TgKFOJ2yvW04ex-334" value="" style="resizeWidth=0;resizeHeight=0;points=[[0,1],[0.5,1],[1,1]];html=1;whiteSpace=wrap;" vertex="1" parent="CzH391TgKFOJ2yvW04ex-332">
          <mxGeometry width="20" height="20" relative="1" as="geometry">
            <mxPoint x="20" as="offset" />
          </mxGeometry>
        </mxCell>
        <mxCell id="CzH391TgKFOJ2yvW04ex-335" value="" style="resizeWidth=0;resizeHeight=0;points=[[0,1],[0.5,1],[1,1]];html=1;whiteSpace=wrap;" vertex="1" parent="CzH391TgKFOJ2yvW04ex-332">
          <mxGeometry width="20" height="20" relative="1" as="geometry">
            <mxPoint x="40" as="offset" />
          </mxGeometry>
        </mxCell>
        <mxCell id="CzH391TgKFOJ2yvW04ex-336" value="" style="resizeWidth=0;resizeHeight=0;points=[[0,1],[0.5,1],[1,1]];html=1;whiteSpace=wrap;" vertex="1" parent="CzH391TgKFOJ2yvW04ex-332">
          <mxGeometry width="20" height="20" relative="1" as="geometry">
            <mxPoint x="60" as="offset" />
          </mxGeometry>
        </mxCell>
        <mxCell id="CzH391TgKFOJ2yvW04ex-351" value="Addresses" style="text;html=1;strokeColor=none;fillColor=none;align=center;verticalAlign=middle;whiteSpace=wrap;rounded=0;" vertex="1" parent="CzH391TgKFOJ2yvW04ex-326">
          <mxGeometry x="220" width="60" height="36.81818181818182" as="geometry" />
        </mxCell>
        <mxCell id="CzH391TgKFOJ2yvW04ex-389" value="&lt;span style=&quot;font-size: 10px;&quot;&gt;L&#39;adresse est nouvelle&lt;/span&gt;" style="rhombus;whiteSpace=wrap;html=1;fillColor=none;aspect=fixed;" vertex="1" parent="CzH391TgKFOJ2yvW04ex-326">
          <mxGeometry x="130" y="20" width="100" height="100" as="geometry" />
        </mxCell>
        <mxCell id="CzH391TgKFOJ2yvW04ex-392" style="edgeStyle=orthogonalEdgeStyle;rounded=0;orthogonalLoop=1;jettySize=auto;html=1;exitX=0.5;exitY=1;exitDx=0;exitDy=0;entryX=0.5;entryY=0;entryDx=0;entryDy=0;" edge="1" parent="CzH391TgKFOJ2yvW04ex-326" source="CzH391TgKFOJ2yvW04ex-390" target="CzH391TgKFOJ2yvW04ex-332">
          <mxGeometry relative="1" as="geometry" />
        </mxCell>
        <mxCell id="CzH391TgKFOJ2yvW04ex-390" value="Ajouter l&#39;adresse dans la BDD" style="rounded=1;whiteSpace=wrap;html=1;fillColor=none;spacingLeft=0;spacingTop=0;spacing=5;" vertex="1" parent="CzH391TgKFOJ2yvW04ex-326">
          <mxGeometry x="200" y="140" width="120" height="60" as="geometry" />
        </mxCell>
        <mxCell id="CzH391TgKFOJ2yvW04ex-385" style="edgeStyle=orthogonalEdgeStyle;rounded=0;orthogonalLoop=1;jettySize=auto;html=1;exitX=1;exitY=0.5;exitDx=0;exitDy=0;entryX=0.5;entryY=0;entryDx=0;entryDy=0;" edge="1" parent="CzH391TgKFOJ2yvW04ex-326" source="CzH391TgKFOJ2yvW04ex-389" target="CzH391TgKFOJ2yvW04ex-390">
          <mxGeometry relative="1" as="geometry" />
        </mxCell>
        <mxCell id="CzH391TgKFOJ2yvW04ex-386" value="Oui" style="edgeLabel;html=1;align=center;verticalAlign=middle;resizable=0;points=[];" vertex="1" connectable="0" parent="CzH391TgKFOJ2yvW04ex-385">
          <mxGeometry x="-0.8" y="1" relative="1" as="geometry">
            <mxPoint x="2" y="1" as="offset" />
          </mxGeometry>
        </mxCell>
        <mxCell id="CzH391TgKFOJ2yvW04ex-393" style="edgeStyle=orthogonalEdgeStyle;rounded=0;orthogonalLoop=1;jettySize=auto;html=1;exitX=0.5;exitY=1;exitDx=0;exitDy=0;" edge="1" parent="CzH391TgKFOJ2yvW04ex-326" source="CzH391TgKFOJ2yvW04ex-391">
          <mxGeometry relative="1" as="geometry">
            <mxPoint x="180" y="260" as="targetPoint" />
          </mxGeometry>
        </mxCell>
        <mxCell id="CzH391TgKFOJ2yvW04ex-391" value="Mettre à jour l&#39;adresse dans la BDD" style="rounded=1;whiteSpace=wrap;html=1;fillColor=none;spacingLeft=0;spacingTop=0;spacing=5;" vertex="1" parent="CzH391TgKFOJ2yvW04ex-326">
          <mxGeometry x="40" y="140" width="120" height="60" as="geometry" />
        </mxCell>
        <mxCell id="CzH391TgKFOJ2yvW04ex-387" style="edgeStyle=orthogonalEdgeStyle;rounded=0;orthogonalLoop=1;jettySize=auto;html=1;exitX=0;exitY=0.5;exitDx=0;exitDy=0;entryX=0.5;entryY=0;entryDx=0;entryDy=0;" edge="1" parent="CzH391TgKFOJ2yvW04ex-326" source="CzH391TgKFOJ2yvW04ex-389" target="CzH391TgKFOJ2yvW04ex-391">
          <mxGeometry relative="1" as="geometry" />
        </mxCell>
        <mxCell id="CzH391TgKFOJ2yvW04ex-388" value="Non" style="edgeLabel;html=1;align=center;verticalAlign=middle;resizable=0;points=[];" vertex="1" connectable="0" parent="CzH391TgKFOJ2yvW04ex-387">
          <mxGeometry x="-0.68" y="-2" relative="1" as="geometry">
            <mxPoint as="offset" />
          </mxGeometry>
        </mxCell>
        <mxCell id="CzH391TgKFOJ2yvW04ex-349" style="edgeStyle=orthogonalEdgeStyle;rounded=0;orthogonalLoop=1;jettySize=auto;html=1;exitX=0.5;exitY=1;exitDx=0;exitDy=0;entryX=1;entryY=0;entryDx=0;entryDy=0;" edge="1" parent="CzH391TgKFOJ2yvW04ex-401" source="CzH391TgKFOJ2yvW04ex-317" target="CzH391TgKFOJ2yvW04ex-329">
          <mxGeometry relative="1" as="geometry" />
        </mxCell>
        <mxCell id="CzH391TgKFOJ2yvW04ex-350" style="edgeStyle=orthogonalEdgeStyle;rounded=0;orthogonalLoop=1;jettySize=auto;html=1;exitX=0.5;exitY=1;exitDx=0;exitDy=0;entryX=0;entryY=0;entryDx=0;entryDy=0;" edge="1" parent="CzH391TgKFOJ2yvW04ex-401" source="CzH391TgKFOJ2yvW04ex-320" target="CzH391TgKFOJ2yvW04ex-330">
          <mxGeometry relative="1" as="geometry" />
        </mxCell>
        <mxCell id="CzH391TgKFOJ2yvW04ex-396" style="edgeStyle=orthogonalEdgeStyle;rounded=0;orthogonalLoop=1;jettySize=auto;html=1;exitX=0.5;exitY=1;exitDx=0;exitDy=0;entryX=0.5;entryY=0;entryDx=0;entryDy=0;" edge="1" parent="CzH391TgKFOJ2yvW04ex-401" source="CzH391TgKFOJ2yvW04ex-394" target="CzH391TgKFOJ2yvW04ex-315">
          <mxGeometry relative="1" as="geometry" />
        </mxCell>
        <mxCell id="CzH391TgKFOJ2yvW04ex-394" value="Mettre à jour la grille clients" style="rounded=1;whiteSpace=wrap;html=1;fillColor=none;spacingLeft=0;spacingTop=0;spacing=5;" vertex="1" parent="CzH391TgKFOJ2yvW04ex-401">
          <mxGeometry x="3022.5" y="1205.5" width="120" height="60" as="geometry" />
        </mxCell>
        <mxCell id="CzH391TgKFOJ2yvW04ex-395" style="edgeStyle=orthogonalEdgeStyle;rounded=0;orthogonalLoop=1;jettySize=auto;html=1;exitX=0.5;exitY=1;exitDx=0;exitDy=0;entryX=0.5;entryY=0;entryDx=0;entryDy=0;" edge="1" parent="CzH391TgKFOJ2yvW04ex-401" source="CzH391TgKFOJ2yvW04ex-332" target="CzH391TgKFOJ2yvW04ex-394">
          <mxGeometry relative="1" as="geometry" />
        </mxCell>
        <mxCell id="CzH391TgKFOJ2yvW04ex-400" value="" style="edgeStyle=orthogonalEdgeStyle;rounded=0;orthogonalLoop=1;jettySize=auto;html=1;exitX=0.5;exitY=1;exitDx=0;exitDy=0;entryX=0.5;entryY=0;entryDx=0;entryDy=0;" edge="1" parent="CzH391TgKFOJ2yvW04ex-401" source="CzH391TgKFOJ2yvW04ex-175" target="CzH391TgKFOJ2yvW04ex-399">
          <mxGeometry relative="1" as="geometry">
            <mxPoint x="1648.5" y="495.5" as="sourcePoint" />
            <mxPoint x="1648.5" y="685.5" as="targetPoint" />
          </mxGeometry>
        </mxCell>
        <mxCell id="CzH391TgKFOJ2yvW04ex-399" value="Supprimer les clients correpondant aux lignes sélectionnées" style="rounded=1;whiteSpace=wrap;html=1;fillColor=none;spacingLeft=0;spacingTop=0;spacing=5;" vertex="1" parent="CzH391TgKFOJ2yvW04ex-401">
          <mxGeometry x="1588.5" y="535.5" width="120" height="60" as="geometry" />
        </mxCell>
        <mxCell id="CzH391TgKFOJ2yvW04ex-179" style="edgeStyle=orthogonalEdgeStyle;rounded=0;orthogonalLoop=1;jettySize=auto;html=1;exitX=0.5;exitY=1;exitDx=0;exitDy=0;entryX=0.5;entryY=0;entryDx=0;entryDy=0;" edge="1" parent="CzH391TgKFOJ2yvW04ex-401" source="CzH391TgKFOJ2yvW04ex-399" target="CzH391TgKFOJ2yvW04ex-178">
          <mxGeometry relative="1" as="geometry" />
        </mxCell>
      </root>
    </mxGraphModel>
  </diagram>
</mxfile>
